<?xml version="1.0" encoding="utf-8"?>
<!-- Generator: Adobe Illustrator 25.1.0, SVG Export Plug-In . SVG Version: 6.00 Build 0)  -->
<svg version="1.1" id="Layer_1" xmlns="http://www.w3.org/2000/svg" xmlns:xlink="http://www.w3.org/1999/xlink" x="0px" y="0px"
	 viewBox="0 0 76 65" style="enable-background:new 0 0 76 65;" xml:space="preserve">
<style type="text/css">
	.st0{display:none;}
	.st1{display:inline;}
	.st2{fill:none;}
	.st3{fill:#4B647D;}
	.st4{fill:#FAC300;}
	.st5{display:inline;fill:none;}
	.st6{fill:#999999;}
	.st7{fill:none;stroke:#000000;stroke-width:0.2064;}
	.st8{fill:#FFFFFF;}
</style>
<g id="fr" class="st0">
	<g class="st1">
		<path class="st2" d="M64.1,82.8c0-2.1-0.5-2.6-1.5-2.6s-1.5,0.5-1.5,2.6s0.5,2.6,1.5,2.6C63.7,85.4,64.1,84.9,64.1,82.8z"/>
		<path class="st2" d="M49.3,80.2c-0.8,0-1.3,0.4-1.4,2h2.7C50.6,80.7,50.2,80.2,49.3,80.2z"/>
		<path class="st2" d="M74,80.2c-0.8,0-1.3,0.4-1.4,2h2.7C75.3,80.7,75,80.2,74,80.2z"/>
		<path class="st2" d="M38.6,80.2c-0.8,0-1.3,0.4-1.4,2h2.7C39.9,80.7,39.5,80.2,38.6,80.2z"/>
		<path class="st2" d="M17.7,84.2c0,0.9,0.3,1.2,0.9,1.2s1.2-0.4,1.5-0.8v-1.8h-0.4C18,82.8,17.7,83.3,17.7,84.2z"/>
		<path class="st3" d="M13.6,76.9h-0.5c-0.2,0-0.3,0.2-0.3,0.3v3.4H9.4v-3.4c0-0.2-0.2-0.3-0.3-0.3H8.5c-0.2,0-0.3,0.2-0.3,0.3v8.5
			c0,0.2,0.2,0.3,0.3,0.3H9c0.2,0,0.3-0.2,0.3-0.3v-4h3.3v4c0,0.2,0.2,0.3,0.3,0.3h0.5c0.2,0,0.3-0.2,0.3-0.3v-8.5
			C14,77.1,13.8,76.9,13.6,76.9z"/>
		<path class="st3" d="M19.2,79.3c-0.9,0-1.6,0.2-2.2,0.6c-0.2,0.1-0.2,0.3-0.2,0.5l0.1,0.3c0.1,0.2,0.3,0.2,0.5,0.2
			c0.5-0.3,1.1-0.5,1.6-0.5c0.9,0,1,0.5,1,1.2v0.5h-0.5c-2.2,0-3.1,0.7-3.1,2.2c0,1.4,0.7,2.1,2,2.1c0.7,0,1.3-0.4,1.7-0.8l0.1,0.3
			c0.1,0.2,0.2,0.3,0.4,0.3h0.2c0.2,0,0.3-0.2,0.3-0.4v-4.5C21.2,79.9,20.5,79.3,19.2,79.3z M20.1,84.6c-0.3,0.4-0.8,0.8-1.5,0.8
			s-0.9-0.3-0.9-1.2c0-1,0.3-1.4,2-1.4h0.4V84.6z"/>
		<path class="st3" d="M28.7,85.8v-6c0-0.2-0.2-0.4-0.3-0.4h-0.5c-0.2,0-0.3,0.2-0.3,0.4v4.7c-0.5,0.4-1.1,0.8-1.6,0.8
			c-0.6,0-0.9-0.3-0.9-1.1v-4.5c0-0.2-0.2-0.4-0.3-0.4h-0.5c-0.2,0-0.3,0.2-0.3,0.4v4.8c0,1.2,0.7,1.7,1.7,1.7c0.8,0,1.4-0.4,2-1
			l0.1,0.5c0,0.2,0.2,0.3,0.4,0.3h0.2C28.5,86.2,28.7,86,28.7,85.8z"/>
		<path class="st3" d="M33.7,85.3c-0.1,0-0.3,0.1-0.4,0.1c-0.4,0-0.5-0.2-0.5-0.6v-4.4h1c0.2,0,0.3-0.2,0.3-0.3v-0.2
			c0-0.2-0.2-0.3-0.3-0.3h-1V78c0-0.2-0.2-0.3-0.3-0.3L32,77.8c-0.2,0.1-0.3,0.2-0.3,0.4v1.4h-0.5c-0.2,0-0.3,0.2-0.3,0.3v0.2
			c0,0.2,0.2,0.3,0.3,0.3h0.4v4.5c0,1.1,0.7,1.4,1.6,1.4c0.3,0,0.5-0.1,0.7-0.1c0.2-0.1,0.3-0.3,0.2-0.4L34,85.6
			C34.1,85.4,33.9,85.3,33.7,85.3z"/>
		<path class="st3" d="M40.7,85.3L40.5,85c-0.1-0.1-0.3-0.2-0.5-0.1c-0.3,0.2-0.7,0.4-1.3,0.4c-1.1,0-1.5-0.5-1.5-2.3h3.7
			c0.1,0,0.2-0.1,0.2-0.2v-0.2c0-2.4-0.9-3.3-2.5-3.3c-1.6,0-2.6,1-2.6,3.5s1,3.5,2.7,3.5c0.8,0,1.4-0.2,2-0.6
			C40.8,85.7,40.9,85.4,40.7,85.3z M38.6,80.2c1,0,1.3,0.5,1.3,2h-2.7C37.3,80.6,37.8,80.2,38.6,80.2z"/>
		<path class="st3" d="M51.4,85.3L51.2,85c-0.1-0.1-0.3-0.2-0.5-0.1c-0.3,0.2-0.7,0.4-1.3,0.4c-1.1,0-1.5-0.5-1.5-2.3h3.7
			c0.1,0,0.2-0.1,0.2-0.2v-0.2c0-2.4-0.9-3.3-2.5-3.3s-2.6,1-2.6,3.5s1,3.5,2.7,3.5c0.8,0,1.4-0.2,2-0.6
			C51.5,85.7,51.5,85.4,51.4,85.3z M49.2,80.2c1,0,1.3,0.5,1.3,2h-2.7C48,80.6,48.4,80.2,49.2,80.2z"/>
		<path class="st3" d="M50.1,76.3l-2,1.4c-0.2,0.1-0.2,0.3-0.1,0.5l0.1,0.1c0.1,0.2,0.3,0.2,0.5,0.1l2.1-1c0.2-0.1,0.2-0.3,0.1-0.5
			l-0.3-0.5C50.4,76.3,50.2,76.2,50.1,76.3z"/>
		<path class="st3" d="M58.1,85.7c0.1-0.1,0.2-0.3,0-0.5l-0.2-0.3c-0.1-0.1-0.3-0.2-0.5,0c-0.3,0.2-0.6,0.4-1,0.4
			c-1.1,0-1.5-0.5-1.5-2.6s0.4-2.5,1.4-2.5c0.4,0,0.7,0.1,1,0.3c0.1,0.1,0.4,0.1,0.5,0l0.2-0.3c0.1-0.1,0.1-0.4-0.1-0.5
			c-0.5-0.4-1-0.5-1.6-0.5c-1.7,0-2.7,1-2.7,3.5c0,2.4,1,3.5,2.7,3.5C57.1,86.3,57.6,86.1,58.1,85.7z"/>
		<path class="st3" d="M65.3,82.8c0-2.5-1.1-3.5-2.8-3.5c-1.7,0-2.7,1-2.7,3.5s1.1,3.5,2.7,3.5C64.2,86.3,65.3,85.3,65.3,82.8z
			 M61.1,82.8c0-2.1,0.5-2.6,1.5-2.6s1.5,0.6,1.5,2.6c0,2.1-0.5,2.6-1.5,2.6S61.1,84.9,61.1,82.8z"/>
		<path class="st3" d="M69.4,86.2c0.2,0,0.3-0.2,0.3-0.4l-0.1-0.4c0-0.1-0.1-0.1-0.1-0.1h-0.1c-0.3,0-0.5-0.1-0.5-0.5v-8.1
			c0-0.2-0.2-0.3-0.3-0.3h-0.5c-0.2,0-0.3,0.2-0.3,0.3v7.8c0,1.2,0.4,1.6,1.2,1.6C69.1,86.3,69.3,86.3,69.4,86.2z"/>
		<path class="st3" d="M74,79.3c-1.6,0-2.6,1-2.6,3.5s1,3.5,2.7,3.5c0.8,0,1.4-0.2,2-0.6c0.2-0.1,0.2-0.3,0.1-0.5L76,84.9
			c-0.1-0.1-0.3-0.2-0.5-0.1c-0.3,0.2-0.7,0.4-1.3,0.4c-1.1,0-1.5-0.5-1.5-2.3h3.7c0.1,0,0.2-0.1,0.2-0.2v-0.2
			C76.5,80.2,75.6,79.3,74,79.3z M72.6,82.2c0.1-1.6,0.6-2,1.4-2c1,0,1.3,0.5,1.3,2H72.6z"/>
		<path class="st3" d="M10.7,98.2c-0.9-0.3-1.2-0.4-1.2-1s0.3-0.8,1.1-0.8c0.4,0,0.7,0.1,1.1,0.2c0.2,0.1,0.4,0,0.5-0.2l0.1-0.3
			c0.1-0.2,0-0.4-0.2-0.5c-0.4-0.2-0.9-0.3-1.6-0.3c-1.5,0-2.1,0.9-2.1,1.8c0,1.3,0.8,1.8,1.7,2.1c1.1,0.3,1.4,0.4,1.4,1.2
			c0,0.6-0.3,1-1.2,1c-0.5,0-1-0.2-1.5-0.4c-0.2-0.1-0.4,0-0.5,0.1l-0.1,0.3c-0.1,0.2,0,0.4,0.1,0.5c0.5,0.3,1.2,0.5,1.9,0.5
			c1.6,0,2.4-0.6,2.4-2C12.7,98.9,11.7,98.5,10.7,98.2z"/>
		<path class="st3" d="M18,95.3c-0.7,0-1.4,0.4-1.9,0.9L16,95.8c0-0.2-0.2-0.3-0.4-0.3h-0.2c-0.2,0-0.3,0.2-0.3,0.3v8.7
			c0,0.2,0.2,0.3,0.3,0.3h0.5c0.2,0,0.3-0.2,0.3-0.3v-2.9c0.4,0.4,1,0.8,1.8,0.8c1.6,0,2.3-1.1,2.3-3.6C20.2,96,19.2,95.3,18,95.3z
			 M17.6,101.4c-0.6,0-1.1-0.3-1.5-0.7v-3.6c0.5-0.5,0.9-0.8,1.6-0.8c0.9,0,1.3,0.4,1.3,2.6C19,101,18.6,101.4,17.6,101.4z"/>
		<path class="st3" d="M24.1,94.5l2.1-1c0.2-0.1,0.2-0.3,0.1-0.5L26,92.5c-0.1-0.2-0.3-0.2-0.4-0.1l-2,1.4c-0.2,0.1-0.2,0.3-0.1,0.5
			l0.1,0.1C23.7,94.5,23.9,94.6,24.1,94.5z"/>
		<path class="st3" d="M24.8,95.3c-1.6,0-2.6,1-2.6,3.5s1,3.5,2.7,3.5c0.8,0,1.4-0.2,2-0.6c0.2-0.1,0.2-0.3,0.1-0.5l-0.2-0.3
			c-0.1-0.1-0.3-0.2-0.5-0.1c-0.3,0.2-0.7,0.4-1.3,0.4c-1.1,0-1.5-0.4-1.5-2.3h3.7c0.1,0,0.2-0.1,0.2-0.2v-0.2
			C27.3,96.2,26.4,95.3,24.8,95.3z M23.5,98.2c0.1-1.6,0.6-2,1.4-2c1,0,1.3,0.5,1.3,2H23.5z"/>
		<path class="st3" d="M33.4,101.1c-0.1-0.1-0.4-0.2-0.5,0c-0.3,0.2-0.6,0.4-1,0.4c-1.1,0-1.5-0.5-1.5-2.6s0.4-2.5,1.4-2.5
			c0.4,0,0.7,0.1,1,0.3c0.1,0.1,0.4,0.1,0.5,0l0.2-0.3c0.1-0.1,0.1-0.4-0.1-0.5c-0.5-0.4-1-0.5-1.6-0.5c-1.7,0-2.7,1-2.7,3.5
			c0,2.4,1,3.5,2.7,3.5c0.8,0,1.3-0.2,1.8-0.6c0.1-0.1,0.2-0.4,0-0.5L33.4,101.1z"/>
		<path class="st3" d="M37.2,95.5h-1.4c-0.2,0-0.3,0.2-0.3,0.3l0,0c0,0.2,0.1,0.4,0.3,0.4l0.6,0.1v5.5c0,0.2,0.2,0.3,0.3,0.3h0.5
			c0.2,0,0.3-0.2,0.3-0.3v-6C37.6,95.7,37.4,95.5,37.2,95.5z"/>
		<path class="st3" d="M37,92.6c-0.5,0-0.8,0.4-0.8,0.8c0,0.5,0.3,0.8,0.8,0.8s0.8-0.4,0.8-0.8C37.8,93,37.4,92.6,37,92.6z"/>
		<path class="st3" d="M42.7,95.3c-0.9,0-1.6,0.2-2.2,0.6c-0.2,0.1-0.2,0.3-0.2,0.5l0.1,0.3c0.1,0.2,0.3,0.2,0.5,0.2
			c0.5-0.3,1.1-0.5,1.6-0.5c0.9,0,1,0.5,1,1.2v0.5H43c-2.2,0-3.1,0.7-3.1,2.2c0,1.4,0.7,2.1,2,2.1c0.7,0,1.3-0.4,1.7-0.8l0.1,0.3
			c0.1,0.2,0.2,0.3,0.4,0.3h0.2c0.2,0,0.3-0.2,0.3-0.4v-4.5C44.7,95.9,44,95.3,42.7,95.3z M43.6,100.7c-0.3,0.4-0.8,0.8-1.5,0.8
			s-0.9-0.3-0.9-1.2c0-1,0.3-1.4,2-1.4h0.4V100.7L43.6,100.7z"/>
		<path class="st3" d="M49.3,101.4L49.3,101.4c-0.4,0-0.6-0.1-0.6-0.5v-8.1c0-0.2-0.2-0.3-0.3-0.3h-0.5c-0.2,0-0.3,0.2-0.3,0.3v7.8
			c0,1.2,0.4,1.6,1.2,1.6c0.2,0,0.3,0,0.5-0.1c0.2,0,0.3-0.2,0.3-0.4l-0.1-0.4C49.4,101.4,49.3,101.4,49.3,101.4z"/>
		<path class="st3" d="M52.8,95.5h-1.4c-0.2,0-0.3,0.2-0.3,0.3l0,0c0,0.2,0.1,0.4,0.3,0.4l0.6,0.1v5.5c0,0.2,0.2,0.3,0.3,0.3h0.5
			c0.2,0,0.3-0.2,0.3-0.3v-6C53.2,95.7,53,95.5,52.8,95.5z"/>
		<path class="st3" d="M52.6,92.6c-0.5,0-0.8,0.4-0.8,0.8c0,0.5,0.3,0.8,0.8,0.8s0.8-0.4,0.8-0.8S53,92.6,52.6,92.6z"/>
		<path class="st3" d="M57.9,98.2c-0.9-0.3-1.2-0.4-1.2-1s0.3-0.8,1.1-0.8c0.4,0,0.7,0.1,1.1,0.2c0.2,0.1,0.4,0,0.5-0.2l0.1-0.3
			c0.1-0.2,0-0.4-0.2-0.5c-0.4-0.2-0.9-0.3-1.6-0.3c-1.5,0-2.1,0.9-2.1,1.8c0,1.3,0.8,1.8,1.7,2.1c1.1,0.3,1.4,0.4,1.4,1.2
			c0,0.6-0.3,1-1.2,1c-0.5,0-1-0.2-1.5-0.4c-0.2-0.1-0.4,0-0.5,0.1l-0.1,0.3c-0.1,0.2,0,0.4,0.1,0.5c0.5,0.3,1.2,0.5,1.9,0.5
			c1.6,0,2.4-0.6,2.4-2C59.9,98.9,59,98.5,57.9,98.2z"/>
		<path class="st3" d="M64.4,95.3c-1.6,0-2.6,1-2.6,3.5s1,3.5,2.7,3.5c0.8,0,1.4-0.2,2-0.6c0.2-0.1,0.2-0.3,0.1-0.5l-0.2-0.3
			c-0.1-0.1-0.3-0.2-0.5-0.1c-0.3,0.2-0.7,0.4-1.3,0.4c-1.1,0-1.5-0.4-1.5-2.3h3.7c0.1,0,0.2-0.1,0.2-0.2v-0.2
			C66.9,96.2,66,95.3,64.4,95.3z M63,98.2c0.1-1.6,0.6-2,1.4-2c1,0,1.3,0.5,1.3,2H63z"/>
		<path class="st3" d="M65.2,92.4l-2,1.4c-0.2,0.1-0.2,0.3-0.1,0.5l0.1,0.1c0.1,0.2,0.3,0.2,0.5,0.1l2.1-1c0.2-0.1,0.2-0.3,0.1-0.5
			l-0.3-0.5C65.6,92.3,65.4,92.3,65.2,92.4z"/>
		<path class="st3" d="M71.4,95.3c-1.6,0-2.6,1-2.6,3.5s1,3.5,2.7,3.5c0.8,0,1.4-0.2,2-0.6c0.2-0.1,0.2-0.3,0.1-0.5l-0.2-0.3
			c-0.1-0.1-0.3-0.2-0.5-0.1c-0.3,0.2-0.7,0.4-1.3,0.4c-1.1,0-1.5-0.4-1.5-2.3h3.7c0.1,0,0.2-0.1,0.2-0.2v-0.2
			C73.9,96.2,73,95.3,71.4,95.3z M70.1,98.2c0.1-1.6,0.6-2,1.4-2c1,0,1.3,0.5,1.3,2H70.1z"/>
		<path class="st3" d="M82.9,95.3c-0.7,0-1.3,0.4-1.8,0.9v-3.3c0-0.2-0.2-0.3-0.3-0.3h-0.5c-0.2,0-0.3,0.2-0.3,0.3v9
			c0,0.2,0.2,0.3,0.3,0.3h0.2c0.2,0,0.4-0.1,0.4-0.3l0.1-0.3c0.4,0.4,1.1,0.8,1.8,0.8c1.6,0,2.3-1.1,2.3-3.6
			C85.2,96,84.2,95.3,82.9,95.3z M82.6,101.4c-0.6,0-1.1-0.3-1.5-0.7v-3.6c0.5-0.5,0.9-0.8,1.6-0.8c0.9,0,1.3,0.4,1.3,2.6
			C84,101,83.5,101.4,82.6,101.4z"/>
		<path class="st3" d="M89.8,95.3c-1.6,0-2.6,1-2.6,3.5s1,3.5,2.7,3.5c0.8,0,1.4-0.2,2-0.6c0.2-0.1,0.2-0.3,0.1-0.5l-0.2-0.3
			c-0.1-0.1-0.3-0.2-0.5-0.1c-0.3,0.2-0.7,0.4-1.3,0.4c-1.1,0-1.5-0.4-1.5-2.3h3.7c0.1,0,0.2-0.1,0.2-0.2v-0.2
			C92.3,96.2,91.4,95.3,89.8,95.3z M88.4,98.2c0.1-1.6,0.6-2,1.4-2c1,0,1.3,0.5,1.3,2H88.4z"/>
		<path class="st3" d="M97.6,95.4c-0.8,0-1.4,0.5-1.9,1.1l-0.1-0.6c0-0.2-0.2-0.4-0.4-0.4H95c-0.2,0-0.3,0.2-0.3,0.4v6
			c0,0.2,0.2,0.3,0.3,0.3h0.5c0.2,0,0.3-0.2,0.3-0.3v-4.6c0.5-0.5,0.9-0.7,1.5-0.7c0.1,0,0.1,0,0.2,0c0.1,0,0.2-0.1,0.2-0.2l0.1-0.9
			C97.8,95.4,97.8,95.4,97.6,95.4C97.7,95.4,97.7,95.4,97.6,95.4z"/>
		<path class="st3" d="M103,95.3c-0.8,0-1.5,0.4-2,1l-0.1-0.5c0-0.2-0.2-0.3-0.4-0.3h-0.3c-0.2,0-0.4,0.2-0.4,0.3v6
			c0,0.2,0.2,0.4,0.4,0.4h0.5c0.2,0,0.3-0.2,0.3-0.4v-4.7c0.5-0.4,1.1-0.8,1.6-0.8c0.6,0,0.8,0.2,0.8,1v4.5c0,0.2,0.2,0.4,0.3,0.4
			h0.5c0.2,0,0.4-0.2,0.4-0.4V97C104.6,95.8,104,95.3,103,95.3z"/>
		<path class="st3" d="M109.6,95.3c-1.6,0-2.7,1-2.7,3.5s1.1,3.5,2.7,3.5c1.6,0,2.7-1,2.7-3.5C112.4,96.3,111.2,95.3,109.6,95.3z
			 M109.6,101.5c-1,0-1.5-0.6-1.5-2.6c0-2.1,0.5-2.6,1.5-2.6s1.5,0.6,1.5,2.6S110.7,101.5,109.6,101.5z"/>
		<path class="st3" d="M115.9,95.5h-1.4c-0.2,0-0.3,0.2-0.3,0.3l0,0c0,0.2,0.1,0.4,0.3,0.4l0.6,0.1v5.5c0,0.2,0.2,0.3,0.4,0.3h0.5
			c0.2,0,0.3-0.2,0.3-0.3v-6C116.2,95.7,116.1,95.5,115.9,95.5z"/>
		<path class="st3" d="M115.7,92.6c-0.5,0-0.8,0.4-0.8,0.8c0,0.5,0.3,0.8,0.8,0.8s0.8-0.4,0.8-0.8S116.1,92.6,115.7,92.6z"/>
		<path class="st3" d="M121,98.2c-0.9-0.3-1.2-0.4-1.2-1s0.3-0.8,1.1-0.8c0.4,0,0.7,0.1,1.1,0.2c0.2,0.1,0.4,0,0.5-0.2l0.1-0.3
			c0.1-0.2,0-0.4-0.2-0.5c-0.4-0.2-0.9-0.3-1.6-0.3c-1.5,0-2.1,0.9-2.1,1.8c0,1.3,0.8,1.8,1.7,2.1c1.1,0.3,1.4,0.4,1.4,1.2
			c0,0.6-0.3,1-1.2,1c-0.5,0-1-0.2-1.5-0.4c-0.2-0.1-0.4,0-0.5,0.1l-0.1,0.3c-0.1,0.2,0,0.4,0.1,0.5c0.5,0.3,1.2,0.5,1.9,0.5
			c1.6,0,2.4-0.6,2.4-2C123,98.9,122.1,98.5,121,98.2z"/>
		<path class="st3" d="M127.5,95.3c-1.6,0-2.6,1-2.6,3.5s1,3.5,2.7,3.5c0.8,0,1.4-0.2,2-0.6c0.2-0.1,0.2-0.3,0.1-0.5l-0.2-0.3
			c-0.1-0.1-0.3-0.2-0.5-0.1c-0.3,0.2-0.7,0.4-1.3,0.4c-1.1,0-1.5-0.4-1.5-2.3h3.7c0.1,0,0.2-0.1,0.2-0.2v-0.2
			C130,96.2,129.1,95.3,127.5,95.3z M126.1,98.2c0.1-1.6,0.6-2,1.4-2c1,0,1.3,0.5,1.3,2H126.1z"/>
		<path class="st3" d="M69.8,38c0-10.7-5.7-19.9-14.7-23.4c0,0-0.3-0.1-0.3-0.4c0-0.2,0.1-0.3,0.2-0.4C62,9.4,66.3,1.4,66.3-7.9
			c0-13.8-11.2-25-25-25H11.7c-1.9-0.1-3.5,1.5-3.5,3.4v89c0,1.9,1.6,3.5,3.5,3.5h33.1C58.6,63,69.8,51.8,69.8,38z M42,45.2
			c0,0.4-0.4,0.8-0.8,0.8h-1.3c-0.4,0-0.8-0.4-0.8-0.8v-8.6h-7.8v8.6c0,0.4-0.4,0.8-0.8,0.8h-1.3c-0.4,0-0.8-0.4-0.8-0.8V25.1
			c0-0.4,0.4-0.8,0.8-0.8h1.3c0.4,0,0.8,0.4,0.8,0.8V34h7.8v-8.9c0-0.4,0.4-0.8,0.8-0.8h1.3c0.4,0,0.8,0.4,0.8,0.8V45.2z M42-14.4
			c0,0.4-0.4,0.8-0.8,0.8h-10v7h8.5c0.4,0,0.8,0.4,0.8,0.8v0.9c0,0.4-0.4,0.8-0.8,0.8h-8.5v8.9c0,0.4-0.4,0.8-0.8,0.8h-1.3
			c-0.4,0-0.8-0.4-0.8-0.8v-20.1c0-0.4,0.4-0.8,0.8-0.8h12.1c0.4,0,0.8,0.4,0.8,0.8V-14.4L42-14.4z"/>
		<path class="st4" d="M41.2,24.3h-1.3c-0.4,0-0.8,0.4-0.8,0.8V34h-7.8v-8.9c0-0.4-0.4-0.8-0.8-0.8h-1.3c-0.4,0-0.8,0.4-0.8,0.8
			v20.1c0,0.4,0.4,0.8,0.8,0.8h1.3c0.4,0,0.8-0.4,0.8-0.8v-8.6h7.8v8.6c0,0.4,0.4,0.8,0.8,0.8h1.3c0.4,0,0.8-0.4,0.8-0.8V25.1
			C42,24.7,41.6,24.3,41.2,24.3z"/>
		<path class="st4" d="M41.2-16.1H29.1c-0.4,0-0.8,0.4-0.8,0.8V4.8c0,0.4,0.4,0.8,0.8,0.8h1.3c0.4,0,0.8-0.4,0.8-0.8v-8.9h8.5
			c0.4,0,0.8-0.4,0.8-0.8v-0.9c0-0.4-0.4-0.8-0.8-0.8h-8.5v-7h10c0.4,0,0.8-0.4,0.8-0.8v-0.9C42-15.7,41.6-16.1,41.2-16.1z"/>
	</g>
</g>
<g id="en" class="st0">
	<g class="st1">
		<path class="st2" d="M69.3,80.2c-0.8,0-1.3,0.4-1.4,2h2.7C70.7,80.7,70.3,80.2,69.3,80.2z"/>
		<path class="st2" d="M95,96.2c-0.8,0-1.3,0.4-1.4,2h2.7C96.3,96.7,96,96.2,95,96.2z"/>
		<path class="st2" d="M42.8,96.3c-0.7,0-1.1,0.3-1.6,0.8v3.6c0.4,0.4,0.9,0.7,1.5,0.7c1,0,1.4-0.3,1.4-2.5
			C44.1,96.7,43.7,96.3,42.8,96.3z"/>
		<path class="st2" d="M35.1,96.3c-0.7,0-1.1,0.3-1.6,0.8v3.6c0.4,0.4,0.9,0.7,1.5,0.7c0.9,0,1.4-0.3,1.4-2.5
			C36.4,96.7,36,96.3,35.1,96.3z"/>
		<path class="st2" d="M64.1,98.8c0,2.2,0.3,2.6,1.3,2.6c0.7,0,1.1-0.3,1.6-0.7V97c-0.4-0.4-0.9-0.7-1.5-0.7
			C64.5,96.3,64.1,96.7,64.1,98.8z"/>
		<path class="st2" d="M58.4,96.2c-0.8,0-1.3,0.4-1.4,2h2.7C59.7,96.7,59.3,96.2,58.4,96.2z"/>
		<path class="st2" d="M26.9,94.2L26.9,94.2c-0.2,0.7-0.3,1.3-0.7,2.7l-0.5,1.6h2.2l-0.4-1.6C27.2,95.5,27.1,94.9,26.9,94.2z"/>
		<path class="st2" d="M18.4,80.2c-0.8,0-1.3,0.4-1.4,2h2.7C19.7,80.7,19.3,80.2,18.4,80.2z"/>
		<path class="st2" d="M115.7,96.2c-0.8,0-1.3,0.4-1.4,2h2.7C117,96.7,116.7,96.2,115.7,96.2z"/>
		<path class="st2" d="M10.9,96.2c-1,0-1.5,0.5-1.5,2.6s0.5,2.6,1.5,2.6s1.5-0.5,1.5-2.6C12.4,96.8,11.9,96.2,10.9,96.2z"/>
		<path class="st2" d="M12.2,79.4c0-1-0.3-1.5-1.4-1.5H9.3v2.9h1.5C11.9,80.8,12.2,80.4,12.2,79.4z"/>
		<path class="st2" d="M10.9,81.9H9.3v3.2h1.5c1.3,0,1.7-0.5,1.7-1.6C12.6,82.4,12.2,81.9,10.9,81.9z"/>
		<path class="st3" d="M12.4,81.3c0.9-0.4,1.1-0.9,1.1-1.9c0-1.4-0.7-2.5-2.7-2.5H8.5c-0.2,0-0.3,0.2-0.3,0.4v8.5
			c0,0.2,0.2,0.4,0.3,0.4H11c1.7,0,2.9-0.8,2.9-2.6C14,82.2,13.3,81.5,12.4,81.3z M9.4,78h1.5c1.1,0,1.4,0.5,1.4,1.5
			s-0.2,1.4-1.3,1.4H9.4V78z M10.9,85.1H9.4v-3.2H11c1.3,0,1.7,0.5,1.7,1.6S12.2,85.1,10.9,85.1z"/>
		<path class="st3" d="M18.5,79.3c-1.6,0-2.6,1-2.6,3.5s1,3.5,2.7,3.5c0.8,0,1.4-0.2,2-0.6c0.2-0.1,0.2-0.3,0.1-0.5l-0.2-0.3
			c-0.1-0.1-0.3-0.2-0.5-0.1c-0.3,0.2-0.7,0.4-1.3,0.4c-1.1,0-1.5-0.5-1.5-2.3h3.7c0.1,0,0.2-0.1,0.2-0.2v-0.2
			C21,80.2,20.1,79.3,18.5,79.3z M17.1,82.2c0.1-1.6,0.6-2,1.4-2c1,0,1.3,0.5,1.3,2H17.1z"/>
		<path class="st3" d="M24.4,80.4l-0.1-0.6c0-0.2-0.2-0.4-0.4-0.4h-0.2c-0.2,0-0.3,0.2-0.3,0.4v6c0,0.2,0.2,0.3,0.3,0.3h0.5
			c0.2,0,0.3-0.2,0.3-0.3v-4.6c0.5-0.5,0.9-0.7,1.5-0.7c0.1,0,0.1,0,0.2,0s0.2-0.1,0.2-0.2l0.1-0.9c0-0.1,0-0.1-0.1-0.1h-0.1
			C25.5,79.3,24.9,79.8,24.4,80.4z"/>
		<path class="st3" d="M32.1,81.3v4.5c0,0.2,0.2,0.3,0.3,0.3h0.5c0.2,0,0.3-0.2,0.3-0.3v-4.9c0-1.1-0.7-1.6-1.6-1.6
			c-0.8,0-1.5,0.4-2,1l-0.1-0.5c0-0.2-0.2-0.3-0.4-0.3h-0.2c-0.2,0-0.3,0.2-0.3,0.3v6c0,0.2,0.2,0.4,0.3,0.4h0.5
			c0.2,0,0.3-0.2,0.3-0.4v-4.7c0.5-0.4,1.1-0.8,1.6-0.8C31.9,80.3,32.1,80.5,32.1,81.3z"/>
		<path class="st3" d="M45.4,76.9h-0.5c-0.2,0-0.3,0.2-0.3,0.3v7.1c-0.4,0.4-1.1,0.9-2,0.9c-1.2,0-1.4-0.6-1.4-2v-6
			c0-0.2-0.2-0.3-0.3-0.3h-0.5c-0.2,0-0.3,0.2-0.3,0.3v6.2c0,2.1,1.2,2.8,2.5,2.8c1,0,1.7-0.5,2.3-1l0.1,0.5c0,0.2,0.2,0.3,0.4,0.3
			h0.2c0.2,0,0.3-0.2,0.3-0.3v-8.5C45.7,77.1,45.5,76.9,45.4,76.9z"/>
		<path class="st3" d="M51.8,79.3c-0.8,0-1.5,0.4-2,1l-0.1-0.5c0-0.2-0.2-0.3-0.4-0.3h-0.2c-0.2,0-0.3,0.2-0.3,0.3v6
			c0,0.2,0.2,0.4,0.3,0.4h0.5c0.2,0,0.3-0.2,0.3-0.4v-4.7c0.5-0.4,1.1-0.8,1.6-0.8c0.6,0,0.8,0.2,0.8,1v4.5c0,0.2,0.2,0.4,0.3,0.4
			h0.5c0.2,0,0.3-0.2,0.3-0.4v-4.9C53.4,79.8,52.7,79.3,51.8,79.3z"/>
		<path class="st3" d="M57.1,76.6c-0.5,0-0.8,0.4-0.8,0.8c0,0.5,0.3,0.8,0.8,0.8s0.8-0.4,0.8-0.8C57.9,76.9,57.5,76.6,57.1,76.6z"/>
		<path class="st3" d="M56.8,86.2h0.5c0.2,0,0.3-0.2,0.3-0.3v-6c0-0.2-0.2-0.4-0.3-0.4h-1.4c-0.2,0-0.3,0.2-0.3,0.4l0,0
			c0,0.2,0.1,0.4,0.3,0.4l0.6,0.1v5.5C56.5,86,56.7,86.2,56.8,86.2z"/>
		<path class="st3" d="M63.1,85.8l2-6c0.1-0.2-0.1-0.3-0.2-0.3h-0.5c-0.2,0-0.4,0.1-0.4,0.3l-1,3.5c-0.2,0.5-0.3,1.4-0.4,1.8l0,0
			c-0.1-0.5-0.3-1.3-0.4-1.7l-1-3.5c-0.1-0.2-0.2-0.3-0.4-0.3h-0.6c-0.2,0-0.3,0.2-0.2,0.3l2,6c0.1,0.2,0.3,0.3,0.5,0.3h0.4
			C62.9,86.2,63.1,86,63.1,85.8z"/>
		<path class="st3" d="M69.5,79.3c-1.6,0-2.6,1-2.6,3.5s1,3.5,2.7,3.5c0.8,0,1.4-0.2,2-0.6c0.2-0.1,0.2-0.3,0.1-0.5l-0.2-0.3
			c-0.1-0.1-0.3-0.2-0.5-0.1c-0.3,0.2-0.7,0.4-1.3,0.4c-1.1,0-1.5-0.5-1.5-2.3h3.7c0.1,0,0.2-0.1,0.2-0.2v-0.2
			C72,80.2,71.1,79.3,69.5,79.3z M68.1,82.2c0.1-1.6,0.6-2,1.4-2c1,0,1.3,0.5,1.3,2H68.1z"/>
		<path class="st3" d="M74.7,86.2h0.5c0.2,0,0.3-0.2,0.3-0.3v-4.6c0.5-0.5,0.9-0.7,1.5-0.7c0.1,0,0.1,0,0.2,0c0.1,0,0.2-0.1,0.2-0.2
			l0.1-0.9c0-0.1,0-0.1-0.1-0.1h-0.1c-0.8,0-1.4,0.5-1.9,1.1l-0.1-0.6c0-0.2-0.2-0.3-0.4-0.3h-0.2c-0.2,0-0.3,0.2-0.3,0.3v6
			C74.3,86,74.5,86.2,74.7,86.2z"/>
		<path class="st3" d="M83.4,84.3c0-1.5-0.9-1.9-2-2.2c-0.9-0.3-1.2-0.4-1.2-1s0.3-0.8,1.1-0.8c0.4,0,0.7,0.1,1.1,0.2
			c0.2,0.1,0.4,0,0.5-0.2L83,80c0.1-0.2,0-0.4-0.2-0.5c-0.4-0.2-0.9-0.3-1.6-0.3c-1.5,0-2.1,0.9-2.1,1.8c0,1.3,0.8,1.8,1.7,2.1
			c1.1,0.3,1.4,0.4,1.4,1.2c0,0.6-0.3,1-1.2,1c-0.5,0-1-0.2-1.5-0.4c-0.2-0.1-0.4,0-0.5,0.1l-0.1,0.3c-0.1,0.2,0,0.4,0.1,0.5
			c0.5,0.3,1.2,0.5,1.9,0.5C82.7,86.3,83.4,85.7,83.4,84.3z"/>
		<path class="st3" d="M87,79.5h-1.4c-0.2,0-0.3,0.2-0.3,0.3l0,0c0,0.2,0.1,0.4,0.3,0.4l0.6,0.1v5.5c0,0.2,0.2,0.3,0.4,0.3h0.5
			c0.2,0,0.3-0.2,0.3-0.3v-6C87.3,79.6,87.2,79.5,87,79.5z"/>
		<path class="st3" d="M86.7,78.2c0.5,0,0.8-0.4,0.8-0.8c0-0.5-0.3-0.8-0.8-0.8s-0.8,0.4-0.8,0.8C85.9,77.9,86.3,78.2,86.7,78.2z"/>
		<path class="st3" d="M92.8,85.8l-0.1-0.2c-0.1-0.2-0.2-0.3-0.4-0.2c-0.1,0-0.3,0.1-0.4,0.1c-0.4,0-0.6-0.2-0.6-0.6v-4.4h1
			c0.2,0,0.3-0.2,0.3-0.4v-0.2c0-0.2-0.2-0.4-0.3-0.4h-1v-1.6c0-0.2-0.2-0.3-0.3-0.3l-0.5,0.1c-0.2,0.1-0.3,0.2-0.3,0.4v1.4h-0.4
			c-0.2,0-0.3,0.2-0.3,0.3V80c0,0.2,0.2,0.4,0.3,0.4h0.4v4.5c0,1.1,0.7,1.4,1.6,1.4c0.3,0,0.5-0.1,0.7-0.1
			C92.8,86.1,92.9,86,92.8,85.8z"/>
		<path class="st3" d="M99.5,79.5H99c-0.2,0-0.4,0.1-0.5,0.3l-1.1,3.6c-0.2,0.7-0.3,1.4-0.4,1.8l0,0c-0.1-0.5-0.3-1.3-0.4-1.8
			l-1-3.6c-0.1-0.2-0.2-0.3-0.4-0.3h-0.6c-0.2,0-0.3,0.2-0.2,0.3l1.9,6.1c0.1,0.1,0.2,0.3,0.3,0.3l0,0c-0.3,1.1-0.7,1.5-1.5,1.7
			c-0.2,0.1-0.3,0.3-0.2,0.4l0.1,0.3c0.1,0.2,0.2,0.3,0.4,0.3c1.1-0.3,1.7-0.7,2.3-2.5l2.1-6.6C99.8,79.6,99.7,79.5,99.5,79.5z"/>
		<path class="st3" d="M10.9,95.3c-1.6,0-2.7,1-2.7,3.5s1.1,3.5,2.7,3.5s2.7-1,2.7-3.5C13.7,96.3,12.5,95.3,10.9,95.3z M10.9,101.5
			c-1,0-1.5-0.6-1.5-2.6c0-2.1,0.5-2.6,1.5-2.6s1.5,0.6,1.5,2.6S12,101.5,10.9,101.5z"/>
		<path class="st3" d="M17.8,92.4c-1,0-1.8,0.5-1.8,2v1.1h-0.3c-0.2,0-0.3,0.2-0.3,0.3V96c0,0.2,0.2,0.3,0.3,0.3h0.4v5.4
			c0,0.2,0.2,0.4,0.3,0.4h0.5c0.2,0,0.3-0.2,0.3-0.4v-5.4h0.9c0.2,0,0.3-0.2,0.3-0.3v-0.2c0-0.2-0.2-0.3-0.3-0.3h-0.9v-1.1
			c0-0.7,0.2-1,0.8-1c0.2,0,0.3,0,0.5,0.1c0.2,0.1,0.4,0,0.5-0.2l0.1-0.2c0.1-0.2,0-0.4-0.2-0.5C18.6,92.5,18.2,92.4,17.8,92.4z"/>
		<path class="st3" d="M27.3,93h-0.7c-0.2,0-0.4,0.1-0.5,0.3l-2.6,8.6c-0.1,0.2,0.1,0.3,0.2,0.3h0.6c0.2,0,0.4-0.1,0.4-0.3l0.7-2.3
			h2.9l0.7,2.3c0.1,0.2,0.2,0.3,0.4,0.3h0.7c0.2,0,0.3-0.2,0.3-0.3l-2.6-8.6C27.7,93.1,27.5,93,27.3,93z M25.8,98.5l0.5-1.6
			c0.4-1.4,0.5-1.9,0.7-2.7l0,0c0.1,0.7,0.2,1.2,0.6,2.7l0.4,1.6H25.8z"/>
		<path class="st3" d="M35.3,95.3c-0.7,0-1.4,0.4-1.9,0.9l-0.1-0.4c0-0.2-0.2-0.3-0.4-0.3h-0.2c-0.2,0-0.3,0.2-0.3,0.3v8.7
			c0,0.2,0.2,0.3,0.3,0.3h0.5c0.2,0,0.3-0.2,0.3-0.3v-2.9c0.4,0.4,1,0.8,1.8,0.8c1.6,0,2.3-1.1,2.3-3.6C37.6,96,36.6,95.3,35.3,95.3
			z M35,101.4c-0.6,0-1.1-0.3-1.5-0.7v-3.6c0.5-0.5,0.9-0.8,1.6-0.8c0.9,0,1.3,0.4,1.3,2.6C36.4,101,36,101.4,35,101.4z"/>
		<path class="st3" d="M43,95.3c-0.7,0-1.4,0.4-1.9,0.9L41,95.8c0-0.2-0.2-0.3-0.4-0.3h-0.2c-0.2,0-0.3,0.2-0.3,0.3v8.7
			c0,0.2,0.2,0.3,0.3,0.3h0.5c0.2,0,0.3-0.2,0.3-0.3v-2.9c0.4,0.4,1,0.8,1.8,0.8c1.6,0,2.3-1.1,2.3-3.6C45.3,96,44.3,95.3,43,95.3z
			 M42.7,101.4c-0.6,0-1.1-0.3-1.5-0.7v-3.6c0.5-0.5,0.9-0.8,1.6-0.8c0.9,0,1.3,0.4,1.3,2.6C44.1,101,43.6,101.4,42.7,101.4z"/>
		<path class="st3" d="M49.5,101.4L49.5,101.4c-0.4,0-0.6-0.1-0.6-0.5v-8.1c0-0.2-0.2-0.3-0.3-0.3h-0.5c-0.2,0-0.3,0.2-0.3,0.3v7.8
			c0,1.2,0.4,1.6,1.2,1.6c0.2,0,0.3,0,0.5-0.1c0.2,0,0.3-0.2,0.3-0.4l-0.1-0.4C49.6,101.4,49.6,101.4,49.5,101.4z"/>
		<path class="st3" d="M52.8,92.6c-0.5,0-0.8,0.4-0.8,0.8c0,0.5,0.3,0.8,0.8,0.8s0.8-0.4,0.8-0.8C53.6,93,53.3,92.6,52.8,92.6z"/>
		<path class="st3" d="M53,95.5h-1.4c-0.2,0-0.3,0.2-0.3,0.3l0,0c0,0.2,0.1,0.4,0.3,0.4l0.6,0.1v5.5c0,0.2,0.2,0.3,0.3,0.3H53
			c0.2,0,0.3-0.2,0.3-0.3v-6C53.4,95.7,53.2,95.5,53,95.5z"/>
		<path class="st3" d="M58.4,95.3c-1.6,0-2.6,1-2.6,3.5s1,3.5,2.7,3.5c0.8,0,1.4-0.2,2-0.6c0.2-0.1,0.2-0.3,0.1-0.5l-0.2-0.3
			c-0.1-0.1-0.3-0.2-0.5-0.1c-0.3,0.2-0.7,0.4-1.3,0.4c-1.1,0-1.5-0.4-1.5-2.3h3.7c0.1,0,0.2-0.1,0.2-0.2v-0.2
			C60.9,96.2,60,95.3,58.4,95.3z M57,98.2c0.1-1.6,0.6-2,1.4-2c1,0,1.3,0.5,1.3,2H57z"/>
		<path class="st3" d="M67.8,92.5h-0.5c-0.2,0-0.3,0.2-0.3,0.4v3.3c-0.4-0.4-1-0.8-1.8-0.8c-1.6,0-2.3,1.1-2.3,3.6
			c0,2.8,1,3.5,2.3,3.5c0.7,0,1.4-0.3,1.9-0.9l0.1,0.4c0.1,0.2,0.2,0.3,0.4,0.3h0.2c0.2,0,0.3-0.2,0.3-0.3v-9
			C68.1,92.7,68,92.5,67.8,92.5z M67,100.7c-0.5,0.5-0.9,0.7-1.6,0.7c-0.9,0-1.3-0.4-1.3-2.6c0-2.1,0.4-2.5,1.4-2.5
			c0.6,0,1.1,0.4,1.5,0.7V100.7L67,100.7L67,100.7z"/>
		<path class="st3" d="M77.1,96.8c-1.1-0.4-1.5-0.7-1.5-1.6c0-0.9,0.6-1.3,1.4-1.3c0.5,0,0.9,0.1,1.4,0.4c0.2,0.1,0.4,0,0.5-0.1
			l0.2-0.3c0.1-0.2,0-0.4-0.1-0.5c-0.5-0.3-1.1-0.5-1.9-0.5c-1.6,0-2.6,0.8-2.6,2.4c0,1.5,0.7,2.2,2.2,2.7c1.1,0.4,1.8,0.8,1.8,1.9
			c0,0.9-0.5,1.5-1.7,1.5c-0.8,0-1.3-0.2-1.9-0.6c-0.1-0.1-0.4-0.1-0.5,0.1l-0.2,0.3c-0.1,0.2-0.1,0.4,0.1,0.5
			c0.6,0.4,1.5,0.7,2.5,0.7c2.2,0,2.9-1.3,2.9-2.6C79.7,97.9,78.5,97.3,77.1,96.8z"/>
		<path class="st3" d="M85.9,101.1c-0.1-0.1-0.3-0.2-0.5,0c-0.3,0.2-0.6,0.4-1,0.4c-1.1,0-1.5-0.5-1.5-2.6s0.4-2.5,1.4-2.5
			c0.4,0,0.7,0.1,1,0.3c0.1,0.1,0.4,0.1,0.5,0l0.2-0.3c0.1-0.1,0.1-0.4-0.1-0.5c-0.5-0.4-1-0.5-1.6-0.5c-1.7,0-2.7,1-2.7,3.5
			c0,2.4,1,3.5,2.7,3.5c0.8,0,1.3-0.2,1.8-0.6c0.1-0.1,0.2-0.4,0-0.5L85.9,101.1z"/>
		<path class="st3" d="M89.4,92.6c-0.5,0-0.8,0.4-0.8,0.8c0,0.5,0.3,0.8,0.8,0.8s0.8-0.4,0.8-0.8S89.9,92.6,89.4,92.6z"/>
		<path class="st3" d="M89.7,95.5h-1.5c-0.2,0-0.3,0.2-0.3,0.3l0,0c0,0.2,0.1,0.4,0.3,0.4l0.6,0.1v5.5c0,0.2,0.2,0.3,0.3,0.3h0.5
			c0.2,0,0.4-0.2,0.4-0.3v-6C90,95.7,89.9,95.5,89.7,95.5z"/>
		<path class="st3" d="M95,95.3c-1.6,0-2.6,1-2.6,3.5s1,3.5,2.7,3.5c0.8,0,1.4-0.2,2-0.6c0.2-0.1,0.2-0.3,0.1-0.5l-0.2-0.3
			c-0.1-0.1-0.3-0.2-0.5-0.1c-0.4,0.2-0.7,0.4-1.3,0.4c-1.1,0-1.5-0.4-1.5-2.3h3.7c0.1,0,0.2-0.1,0.2-0.2v-0.2
			C97.5,96.2,96.6,95.3,95,95.3z M93.6,98.2c0.1-1.6,0.6-2,1.4-2c1,0,1.3,0.5,1.3,2H93.6z"/>
		<path class="st3" d="M103,95.3c-0.8,0-1.5,0.4-2,1l-0.1-0.5c0-0.2-0.2-0.3-0.4-0.3h-0.3c-0.2,0-0.3,0.2-0.3,0.3v6
			c0,0.2,0.2,0.4,0.3,0.4h0.5c0.2,0,0.4-0.2,0.4-0.4v-4.7c0.5-0.4,1.1-0.8,1.6-0.8c0.6,0,0.8,0.2,0.8,1v4.5c0,0.2,0.2,0.4,0.3,0.4
			h0.5c0.2,0,0.4-0.2,0.4-0.4V97C104.6,95.8,104,95.3,103,95.3z"/>
		<path class="st3" d="M111.1,101.1c-0.1-0.1-0.3-0.2-0.5,0c-0.3,0.2-0.6,0.4-1,0.4c-1.1,0-1.5-0.5-1.5-2.6s0.4-2.5,1.4-2.5
			c0.4,0,0.7,0.1,1,0.3c0.1,0.1,0.4,0.1,0.5,0l0.2-0.3c0.1-0.1,0.1-0.4-0.1-0.5c-0.5-0.4-1-0.5-1.6-0.5c-1.7,0-2.7,1-2.7,3.5
			c0,2.4,0.9,3.5,2.7,3.5c0.8,0,1.3-0.2,1.8-0.6c0.1-0.1,0.2-0.4,0-0.5L111.1,101.1z"/>
		<path class="st3" d="M115.7,95.3c-1.6,0-2.6,1-2.6,3.5s1,3.5,2.7,3.5c0.8,0,1.4-0.2,2-0.6c0.2-0.1,0.2-0.3,0.1-0.5l-0.2-0.3
			c-0.1-0.1-0.3-0.2-0.5-0.1c-0.3,0.2-0.7,0.4-1.3,0.4c-1.1,0-1.5-0.4-1.5-2.3h3.7c0.1,0,0.2-0.1,0.2-0.2v-0.2
			C118.2,96.2,117.3,95.3,115.7,95.3z M114.4,98.2c0.1-1.6,0.6-2,1.4-2c1,0,1.3,0.5,1.3,2H114.4z"/>
		<path class="st3" d="M122.5,98.2c-0.9-0.3-1.2-0.4-1.2-1s0.3-0.8,1.1-0.8c0.4,0,0.7,0.1,1.1,0.2c0.2,0.1,0.4,0,0.5-0.2l0.1-0.3
			c0.1-0.2,0-0.4-0.2-0.5c-0.4-0.2-0.9-0.3-1.6-0.3c-1.5,0-2.1,0.9-2.1,1.8c0,1.3,0.8,1.8,1.7,2.1c1.1,0.3,1.4,0.4,1.4,1.2
			c0,0.6-0.3,1-1.2,1c-0.6,0-1-0.2-1.5-0.4c-0.2-0.1-0.4,0-0.5,0.1l-0.1,0.3c-0.1,0.2,0,0.4,0.1,0.5c0.5,0.3,1.2,0.5,1.9,0.5
			c1.6,0,2.4-0.6,2.4-2C124.5,98.9,123.6,98.5,122.5,98.2z"/>
		<path class="st3" d="M11.7,63h33.1c13.8,0,25-11.2,25-25c0-10.7-5.7-19.9-14.7-23.4c0,0-0.3-0.1-0.3-0.4c0-0.2,0.1-0.3,0.2-0.4
			C62,9.4,66.3,1.4,66.3-7.9c0-13.8-11.2-25-25-25H11.7c-1.9-0.1-3.5,1.5-3.5,3.4v89C8.2,61.4,9.8,63,11.7,63z M42,45.2
			c0,0.4-0.4,0.8-0.8,0.8h-1.3c-0.4,0-0.8-0.4-0.8-0.8v-8.6h-7.8v8.6c0,0.4-0.4,0.8-0.8,0.8h-1.3c-0.4,0-0.8-0.4-0.8-0.8V25.1
			c0-0.4,0.4-0.8,0.8-0.8h1.3c0.4,0,0.8,0.4,0.8,0.8V34h7.8v-8.9c0-0.4,0.4-0.8,0.8-0.8h1.3c0.4,0,0.8,0.4,0.8,0.8V45.2z M28.3-15.3
			c0-0.4,0.4-0.8,0.8-0.8h12.1c0.4,0,0.8,0.4,0.8,0.8v0.9c0,0.4-0.4,0.8-0.8,0.8h-10v7h8.5c0.4,0,0.8,0.4,0.8,0.8v0.9
			c0,0.4-0.4,0.8-0.8,0.8h-8.5v8.9c0,0.4-0.4,0.8-0.8,0.8h-1.3c-0.4,0-0.8-0.4-0.8-0.8C28.3,4.8,28.3-15.3,28.3-15.3z"/>
		<path class="st4" d="M41.2,24.3h-1.3c-0.4,0-0.8,0.4-0.8,0.8V34h-7.8v-8.9c0-0.4-0.4-0.8-0.8-0.8h-1.3c-0.4,0-0.8,0.4-0.8,0.8
			v20.1c0,0.4,0.4,0.8,0.8,0.8h1.3c0.4,0,0.8-0.4,0.8-0.8v-8.6h7.8v8.6c0,0.4,0.4,0.8,0.8,0.8h1.3c0.4,0,0.8-0.4,0.8-0.8V25.1
			C42,24.7,41.6,24.3,41.2,24.3z"/>
		<path class="st4" d="M29.1,5.6h1.3c0.4,0,0.8-0.4,0.8-0.8v-8.9h8.5c0.4,0,0.8-0.4,0.8-0.8v-0.9c0-0.4-0.4-0.8-0.8-0.8h-8.5v-7h10
			c0.4,0,0.8-0.4,0.8-0.8v-0.9c0-0.4-0.4-0.8-0.8-0.8H29.1c-0.4,0-0.8,0.4-0.8,0.8V4.8C28.3,5.3,28.7,5.6,29.1,5.6z"/>
	</g>
</g>
<g id="Layer_4" class="st0">
	<rect x="8.2" y="-33" class="st5" width="123" height="139"/>
</g>
<g>
	<polygon points="25.5,46.4 37.3,39.9 25.5,33.2 	"/>
	<polygon points="25.5,6.7 37.3,0 37.3,13.3 25.5,20 	"/>
	<polygon points="60.7,0.2 48.9,6.7 48.9,20 37.3,26.6 37.3,39.9 48.9,33.2 48.9,46.4 60.7,39.9 	"/>
	<polygon class="st6" points="37.3,39.9 48.9,46.4 48.9,33.2 	"/>
	<polygon class="st6" points="37.3,0 48.9,6.8 48.9,20 37.3,13.3 	"/>
	<polygon class="st6" points="13.9,0.2 25.5,6.7 25.5,20 37.3,26.6 37.3,39.9 25.5,33.2 25.5,46.4 13.9,39.9 	"/>
	<g>
		<line class="st7" x1="25.5" y1="6.7" x2="25.5" y2="20"/>
		<line class="st7" x1="37.3" y1="0" x2="37.3" y2="13.3"/>
		<line class="st7" x1="48.9" y1="6.8" x2="48.9" y2="20"/>
		<polyline class="st7" points="48.9,46.5 48.9,33.2 37.3,39.9 25.5,33.2 25.5,46.4 		"/>
		<line class="st7" x1="37.3" y1="26.6" x2="37.3" y2="39.9"/>
		<path d="M3,56.6h5.5v-0.5c0-2,0-2.5-0.1-4.1l0-0.5c0.7,0.1,1,0.1,1.6,0.1c0.6,0,0.9,0,1.5-0.1c0,0.8-0.1,1-0.1,2l0,1.7
			c0,0.8,0,1.7,0,2.6c0,0.9,0,1.7,0,2.6l0,1.8c0,1.2,0,1.5,0.1,2.4c-0.8-0.1-1.1-0.1-1.6-0.1c-0.5,0-0.8,0-1.5,0.1
			c0.1-1.2,0.1-1.7,0.1-2.3l0-1.5v-1.4v-0.6H3v0.6c0,0.3,0,0.8,0,1.4c0,0.7,0,1.2,0,1.5c0,0.8,0,1.2,0.1,2.3
			c-0.8-0.1-1.1-0.1-1.5-0.1c-0.5,0-0.8,0-1.6,0.1c0-0.4,0-0.6,0-0.8c0-0.2,0-0.7,0-1.6l0-1.8c0-1.1,0-2,0-2.7c0-0.8,0-1.6,0-2.5
			l0-1.7c0-1.1,0-1.3-0.1-2c0.6,0.1,0.9,0.1,1.5,0.1c0.6,0,0.9,0,1.6-0.1C3,52.5,3,54.2,3,56.2V56.6z"/>
		<path d="M13.6,51.5h7.1l1.1,0l1.2,0l0.5,0v2.3l-0.5,0l-1.1,0l-1.3,0h-4v3l4,0c0.7,0,1.8,0,2.5-0.1v2.3l-0.5,0h-1l-1,0h-4v3.6h4
			c0.8,0,2,0,3.1-0.1v2.3c-1,0-2-0.1-3-0.1h-7c0.1-1.5,0.1-2.4,0.1-4.4v-2.5l0-2.2l0-2C13.7,52.5,13.7,52.3,13.6,51.5z"/>
		<path d="M25.5,51.5h6.3c2.3,0,3.2,0.2,4.1,0.9c0.8,0.6,1.2,1.6,1.2,2.6c0,1.4-0.7,2.6-1.9,3.2c-0.5,0.2-0.8,0.3-1.6,0.4
			c0.8,1.4,1,1.6,2.4,3.8c0.8,1.2,0.9,1.4,1.5,2.2c-1.1-0.1-1.4-0.1-2-0.1c-0.5,0-0.9,0-1.7,0.1c-0.5-1-0.7-1.4-1.2-2.3
			c-0.5-0.9-0.9-1.5-2.1-3.4h-2.1v1.2v1.2c0,1.1,0,2.2,0.1,3.3c-0.7-0.1-1-0.1-1.5-0.1s-0.8,0-1.6,0.1c0.1-1.2,0.1-2.5,0.1-4.2v-2.7
			c0-1.4,0-2.2,0-2.5c0-0.4,0-1-0.1-1.8C25.5,52.5,25.5,52.3,25.5,51.5z M28.5,56.8h3c1.9,0,2.5-0.4,2.5-1.6c0-1.1-0.6-1.5-2.5-1.5
			h-3.1V56.8z"/>
		<path d="M48.8,62.3v2.4l-0.6,0l-1.8,0l-1.7,0h-6.1c-0.7,0-0.9,0-0.9-0.3c0-0.2,0.1-0.5,0.4-0.8l6.7-9.8c-1.3,0-1.7,0-3.3,0.1
			c-0.9,0-1.7,0.1-2.4,0.1l-0.8,0v-2.4l0.6,0l1.7,0l1.6,0h5.8c0.6,0,0.8,0.1,0.8,0.3c0,0.2-0.1,0.4-0.2,0.6l-6.8,9.9h1.1h2.7
			l2.5-0.1L48.8,62.3z"/>
		<path d="M55.3,51.2c3.9,0,6.9,3,6.9,6.9c0,3.9-3,6.9-6.9,6.9c-4,0-6.9-3-6.9-6.9C48.3,54.1,51.3,51.2,55.3,51.2z M55.2,53.4
			c-2.2,0-3.9,2-3.9,4.7c0,2.7,1.6,4.7,3.9,4.7c2.2,0,3.9-2,3.9-4.7C59.1,55.4,57.5,53.4,55.2,53.4z"/>
		<path d="M69.8,58.9v-2.2c1.2,0.1,1.6,0.1,3,0.1c1.3,0,1.5,0,2.4-0.1c-0.1,1.1-0.1,1.5-0.1,2.2c0,1.2,0,2.5,0.1,4.3
			c-1.2,0.9-1.8,1.2-2.9,1.5c-0.7,0.2-1.5,0.3-2.4,0.3c-4,0-7-2.9-7-6.9c0-4.1,3.1-7,7.4-7c1.5,0,2.5,0.2,4,0.9v2.7
			c-1.2-0.9-2.3-1.3-3.8-1.3c-2.7,0-4.5,1.9-4.5,4.7c0,2.8,1.6,4.7,4.1,4.7c0.8,0,1.5-0.2,2.3-0.5v-3.4h-0.6h-0.9
			C70.5,58.8,70.3,58.8,69.8,58.9z"/>
	</g>
	<polygon class="st8" points="37,0 37.6,0 37.6,0.2 37.3,0 37,0.2 	"/>
	<polygon class="st8" points="24.9,46.1 25.5,46.4 26,46.2 26,46.6 24.9,46.6 	"/>
	<polygon class="st8" points="48.2,46.1 48.9,46.4 49.3,46.2 49.3,46.6 48.2,46.6 	"/>
</g>
</svg>
