<?xml version="1.0" encoding="utf-8"?>
<!-- Generator: Adobe Illustrator 25.1.0, SVG Export Plug-In . SVG Version: 6.00 Build 0)  -->
<svg version="1.1" id="Layer_1" xmlns="http://www.w3.org/2000/svg" xmlns:xlink="http://www.w3.org/1999/xlink" x="0px" y="0px"
	 viewBox="0 0 65 100" style="enable-background:new 0 0 65 100;" xml:space="preserve">
<style type="text/css">
	.st0{fill:#FFFFFF;}
	.st1{display:none;}
	.st2{display:inline;}
	.st3{fill:none;}
	.st4{fill:#4B647D;}
	.st5{fill:#FAC300;}
	.st6{display:inline;fill:none;}
</style>
<g id="de">
	<g>
		<path d="M48.9,49.5c0,0-0.3-0.1-0.3-0.4c0-0.2,0.1-0.3,0.2-0.4C56,44.1,60.5,35.7,60.5,26c0-14.4-11.7-26-26-26H3.6
			C1.7,0,0,1.7,0,3.6v92.7c0,2,1.7,3.6,3.6,3.6h34.5c14.4,0,26-11.7,26-26C64.2,62.7,58.2,53.1,48.9,49.5z M35.2,81.5
			c0,0.4-0.4,0.8-0.8,0.8H33c-0.4,0-0.8-0.4-0.8-0.8v-9h-8.1v9c0,0.4-0.4,0.8-0.8,0.8h-1.4c-0.4,0-0.8-0.4-0.8-0.8V60.5
			c0-0.4,0.4-0.8,0.8-0.8h1.4c0.4,0,0.8,0.4,0.8,0.8v9.3h8.1v-9.3c0-0.4,0.4-0.8,0.8-0.8h1.4c0.4,0,0.8,0.4,0.8,0.8V81.5z
			 M35.2,19.4c0,0.4-0.4,0.8-0.8,0.8H24v7.3h8.9c0.4,0,0.8,0.4,0.8,0.8v0.9c0,0.4-0.4,0.8-0.8,0.8H24v9.3c0,0.4-0.4,0.8-0.8,0.8
			h-1.4c-0.4,0-0.8-0.4-0.8-0.8V18.4c0-0.4,0.4-0.8,0.8-0.8h12.6c0.4,0,0.8,0.4,0.8,0.8V19.4z"/>
		<path class="st0" d="M34.4,59.7H33c-0.4,0-0.8,0.4-0.8,0.8v9.3h-8.1v-9.3c0-0.4-0.4-0.8-0.8-0.8h-1.4c-0.4,0-0.8,0.4-0.8,0.8v20.9
			c0,0.4,0.4,0.8,0.8,0.8h1.4c0.4,0,0.8-0.4,0.8-0.8v-9h8.1v9c0,0.4,0.4,0.8,0.8,0.8h1.4c0.4,0,0.8-0.4,0.8-0.8V60.5
			C35.2,60.1,34.8,59.7,34.4,59.7z"/>
		<path class="st0" d="M34.4,17.6H21.8c-0.4,0-0.8,0.4-0.8,0.8v20.9c0,0.4,0.4,0.8,0.8,0.8h1.4c0.4,0,0.8-0.4,0.8-0.8v-9.3h8.9
			c0.4,0,0.8-0.4,0.8-0.8v-0.9c0-0.4-0.4-0.8-0.8-0.8H24v-7.3h10.4c0.4,0,0.8-0.4,0.8-0.8v-0.9C35.2,18,34.8,17.6,34.4,17.6z"/>
	</g>
</g>
<g id="fr" class="st1">
	<g class="st2">
		<path class="st3" d="M57.6,117.8c0-2.1-0.5-2.6-1.5-2.6s-1.5,0.5-1.5,2.6s0.5,2.6,1.5,2.6C57.2,120.4,57.6,119.9,57.6,117.8z"/>
		<path class="st3" d="M42.8,115.2c-0.8,0-1.3,0.4-1.4,2h2.7C44.1,115.7,43.7,115.2,42.8,115.2z"/>
		<path class="st3" d="M67.5,115.2c-0.8,0-1.3,0.4-1.4,2h2.7C68.8,115.7,68.5,115.2,67.5,115.2z"/>
		<path class="st3" d="M32.1,115.2c-0.8,0-1.3,0.4-1.4,2h2.7C33.4,115.7,33,115.2,32.1,115.2z"/>
		<path class="st3" d="M11.2,119.2c0,0.9,0.3,1.2,0.9,1.2s1.2-0.4,1.5-0.8v-1.8h-0.4C11.5,117.8,11.2,118.3,11.2,119.2z"/>
		<path class="st4" d="M7.1,111.9H6.6c-0.2,0-0.3,0.2-0.3,0.3v3.4H2.9v-3.4c0-0.2-0.2-0.3-0.3-0.3H2c-0.2,0-0.3,0.2-0.3,0.3v8.5
			c0,0.2,0.2,0.3,0.3,0.3h0.5c0.2,0,0.3-0.2,0.3-0.3v-4h3.3v4c0,0.2,0.2,0.3,0.3,0.3h0.5c0.2,0,0.3-0.2,0.3-0.3v-8.5
			C7.5,112.1,7.3,111.9,7.1,111.9z"/>
		<path class="st4" d="M12.7,114.3c-0.9,0-1.6,0.2-2.2,0.6c-0.2,0.1-0.2,0.3-0.2,0.5l0.1,0.3c0.1,0.2,0.3,0.2,0.5,0.2
			c0.5-0.3,1.1-0.5,1.6-0.5c0.9,0,1,0.5,1,1.2v0.5H13c-2.2,0-3.1,0.7-3.1,2.2c0,1.4,0.7,2.1,2,2.1c0.7,0,1.3-0.4,1.7-0.8l0.1,0.3
			c0.1,0.2,0.2,0.3,0.4,0.3h0.2c0.2,0,0.3-0.2,0.3-0.4v-4.5C14.7,114.9,14,114.3,12.7,114.3z M13.6,119.6c-0.3,0.4-0.8,0.8-1.5,0.8
			s-0.9-0.3-0.9-1.2c0-1,0.3-1.4,2-1.4h0.4V119.6z"/>
		<path class="st4" d="M22.2,120.8v-6c0-0.2-0.2-0.4-0.3-0.4h-0.5c-0.2,0-0.3,0.2-0.3,0.4v4.7c-0.5,0.4-1.1,0.8-1.6,0.8
			c-0.6,0-0.9-0.3-0.9-1.1v-4.5c0-0.2-0.2-0.4-0.3-0.4h-0.5c-0.2,0-0.3,0.2-0.3,0.4v4.8c0,1.2,0.7,1.7,1.7,1.7c0.8,0,1.4-0.4,2-1
			l0.1,0.5c0,0.2,0.2,0.3,0.4,0.3h0.2C22,121.2,22.2,121,22.2,120.8z"/>
		<path class="st4" d="M27.2,120.3c-0.1,0-0.3,0.1-0.4,0.1c-0.4,0-0.5-0.2-0.5-0.6v-4.4h1c0.2,0,0.3-0.2,0.3-0.3v-0.2
			c0-0.2-0.2-0.3-0.3-0.3h-1V113c0-0.2-0.2-0.3-0.3-0.3l-0.5,0.1c-0.2,0.1-0.3,0.2-0.3,0.4v1.4h-0.5c-0.2,0-0.3,0.2-0.3,0.3v0.2
			c0,0.2,0.2,0.3,0.3,0.3h0.4v4.5c0,1.1,0.7,1.4,1.6,1.4c0.3,0,0.5-0.1,0.7-0.1c0.2-0.1,0.3-0.3,0.2-0.4l-0.1-0.2
			C27.6,120.4,27.4,120.3,27.2,120.3z"/>
		<path class="st4" d="M34.2,120.3L34,120c-0.1-0.1-0.3-0.2-0.5-0.1c-0.3,0.2-0.7,0.4-1.3,0.4c-1.1,0-1.5-0.5-1.5-2.3h3.7
			c0.1,0,0.2-0.1,0.2-0.2v-0.2c0-2.4-0.9-3.3-2.5-3.3c-1.6,0-2.6,1-2.6,3.5s1,3.5,2.7,3.5c0.8,0,1.4-0.2,2-0.6
			C34.3,120.7,34.4,120.4,34.2,120.3z M32.1,115.2c1,0,1.3,0.5,1.3,2h-2.7C30.8,115.6,31.3,115.2,32.1,115.2z"/>
		<path class="st4" d="M44.9,120.3l-0.2-0.3c-0.1-0.1-0.3-0.2-0.5-0.1c-0.3,0.2-0.7,0.4-1.3,0.4c-1.1,0-1.5-0.5-1.5-2.3h3.7
			c0.1,0,0.2-0.1,0.2-0.2v-0.2c0-2.4-0.9-3.3-2.5-3.3s-2.6,1-2.6,3.5s1,3.5,2.7,3.5c0.8,0,1.4-0.2,2-0.6
			C45,120.7,45,120.4,44.9,120.3z M42.7,115.2c1,0,1.3,0.5,1.3,2h-2.7C41.5,115.6,41.9,115.2,42.7,115.2z"/>
		<path class="st4" d="M43.6,111.3l-2,1.4c-0.2,0.1-0.2,0.3-0.1,0.5l0.1,0.1c0.1,0.2,0.3,0.2,0.5,0.1l2.1-1c0.2-0.1,0.2-0.3,0.1-0.5
			l-0.3-0.5C43.9,111.3,43.7,111.2,43.6,111.3z"/>
		<path class="st4" d="M51.6,120.7c0.1-0.1,0.2-0.3,0-0.5l-0.2-0.3c-0.1-0.1-0.3-0.2-0.5,0c-0.3,0.2-0.6,0.4-1,0.4
			c-1.1,0-1.5-0.5-1.5-2.6s0.4-2.5,1.4-2.5c0.4,0,0.7,0.1,1,0.3c0.1,0.1,0.4,0.1,0.5,0l0.2-0.3c0.1-0.1,0.1-0.4-0.1-0.5
			c-0.5-0.4-1-0.5-1.6-0.5c-1.7,0-2.7,1-2.7,3.5c0,2.4,1,3.5,2.7,3.5C50.6,121.3,51.1,121.1,51.6,120.7z"/>
		<path class="st4" d="M58.8,117.8c0-2.5-1.1-3.5-2.8-3.5s-2.7,1-2.7,3.5s1.1,3.5,2.7,3.5C57.7,121.3,58.8,120.3,58.8,117.8z
			 M54.6,117.8c0-2.1,0.5-2.6,1.5-2.6s1.5,0.6,1.5,2.6c0,2.1-0.5,2.6-1.5,2.6S54.6,119.9,54.6,117.8z"/>
		<path class="st4" d="M62.9,121.2c0.2,0,0.3-0.2,0.3-0.4l-0.1-0.4c0-0.1-0.1-0.1-0.1-0.1h-0.1c-0.3,0-0.5-0.1-0.5-0.5v-8.1
			c0-0.2-0.2-0.3-0.3-0.3h-0.5c-0.2,0-0.3,0.2-0.3,0.3v7.8c0,1.2,0.4,1.6,1.2,1.6C62.6,121.3,62.8,121.3,62.9,121.2z"/>
		<path class="st4" d="M67.5,114.3c-1.6,0-2.6,1-2.6,3.5s1,3.5,2.7,3.5c0.8,0,1.4-0.2,2-0.6c0.2-0.1,0.2-0.3,0.1-0.5l-0.2-0.3
			c-0.1-0.1-0.3-0.2-0.5-0.1c-0.3,0.2-0.7,0.4-1.3,0.4c-1.1,0-1.5-0.5-1.5-2.3h3.7c0.1,0,0.2-0.1,0.2-0.2v-0.2
			C70,115.2,69.1,114.3,67.5,114.3z M66.1,117.2c0.1-1.6,0.6-2,1.4-2c1,0,1.3,0.5,1.3,2H66.1z"/>
		<path class="st4" d="M4.2,133.2c-0.9-0.3-1.2-0.4-1.2-1s0.3-0.8,1.1-0.8c0.4,0,0.7,0.1,1.1,0.2c0.2,0.1,0.4,0,0.5-0.2l0.1-0.3
			c0.1-0.2,0-0.4-0.2-0.5c-0.4-0.2-0.9-0.3-1.6-0.3c-1.5,0-2.1,0.9-2.1,1.8c0,1.3,0.8,1.8,1.7,2.1c1.1,0.3,1.4,0.4,1.4,1.2
			c0,0.6-0.3,1-1.2,1c-0.5,0-1-0.2-1.5-0.4c-0.2-0.1-0.4,0-0.5,0.1l-0.1,0.3c-0.1,0.2,0,0.4,0.1,0.5c0.5,0.3,1.2,0.5,1.9,0.5
			c1.6,0,2.4-0.6,2.4-2C6.2,133.9,5.2,133.5,4.2,133.2z"/>
		<path class="st4" d="M11.5,130.3c-0.7,0-1.4,0.4-1.9,0.9l-0.1-0.4c0-0.2-0.2-0.3-0.4-0.3H8.9c-0.2,0-0.3,0.2-0.3,0.3v8.7
			c0,0.2,0.2,0.3,0.3,0.3h0.5c0.2,0,0.3-0.2,0.3-0.3v-2.9c0.4,0.4,1,0.8,1.8,0.8c1.6,0,2.3-1.1,2.3-3.6
			C13.7,131,12.7,130.3,11.5,130.3z M11.1,136.4c-0.6,0-1.1-0.3-1.5-0.7v-3.6c0.5-0.5,0.9-0.8,1.6-0.8c0.9,0,1.3,0.4,1.3,2.6
			C12.5,136,12.1,136.4,11.1,136.4z"/>
		<path class="st4" d="M17.6,129.5l2.1-1c0.2-0.1,0.2-0.3,0.1-0.5l-0.3-0.5c-0.1-0.2-0.3-0.2-0.4-0.1l-2,1.4
			c-0.2,0.1-0.2,0.3-0.1,0.5l0.1,0.1C17.2,129.5,17.4,129.6,17.6,129.5z"/>
		<path class="st4" d="M18.3,130.3c-1.6,0-2.6,1-2.6,3.5s1,3.5,2.7,3.5c0.8,0,1.4-0.2,2-0.6c0.2-0.1,0.2-0.3,0.1-0.5l-0.2-0.3
			c-0.1-0.1-0.3-0.2-0.5-0.1c-0.3,0.2-0.7,0.4-1.3,0.4c-1.1,0-1.5-0.4-1.5-2.3h3.7c0.1,0,0.2-0.1,0.2-0.2v-0.2
			C20.8,131.2,19.9,130.3,18.3,130.3z M17,133.2c0.1-1.6,0.6-2,1.4-2c1,0,1.3,0.5,1.3,2H17z"/>
		<path class="st4" d="M26.9,136.1c-0.1-0.1-0.4-0.2-0.5,0c-0.3,0.2-0.6,0.4-1,0.4c-1.1,0-1.5-0.5-1.5-2.6s0.4-2.5,1.4-2.5
			c0.4,0,0.7,0.1,1,0.3c0.1,0.1,0.4,0.1,0.5,0l0.2-0.3c0.1-0.1,0.1-0.4-0.1-0.5c-0.5-0.4-1-0.5-1.6-0.5c-1.7,0-2.7,1-2.7,3.5
			c0,2.4,1,3.5,2.7,3.5c0.8,0,1.3-0.2,1.8-0.6c0.1-0.1,0.2-0.4,0-0.5L26.9,136.1z"/>
		<path class="st4" d="M30.7,130.5h-1.4c-0.2,0-0.3,0.2-0.3,0.3l0,0c0,0.2,0.1,0.4,0.3,0.4l0.6,0.1v5.5c0,0.2,0.2,0.3,0.3,0.3h0.5
			c0.2,0,0.3-0.2,0.3-0.3v-6C31.1,130.7,30.9,130.5,30.7,130.5z"/>
		<path class="st4" d="M30.5,127.6c-0.5,0-0.8,0.4-0.8,0.8c0,0.5,0.3,0.8,0.8,0.8s0.8-0.4,0.8-0.8C31.3,128,30.9,127.6,30.5,127.6z"
			/>
		<path class="st4" d="M36.2,130.3c-0.9,0-1.6,0.2-2.2,0.6c-0.2,0.1-0.2,0.3-0.2,0.5l0.1,0.3c0.1,0.2,0.3,0.2,0.5,0.2
			c0.5-0.3,1.1-0.5,1.6-0.5c0.9,0,1,0.5,1,1.2v0.5h-0.5c-2.2,0-3.1,0.7-3.1,2.2c0,1.4,0.7,2.1,2,2.1c0.7,0,1.3-0.4,1.7-0.8l0.1,0.3
			c0.1,0.2,0.2,0.3,0.4,0.3h0.2c0.2,0,0.3-0.2,0.3-0.4v-4.5C38.2,130.9,37.5,130.3,36.2,130.3z M37.1,135.7
			c-0.3,0.4-0.8,0.8-1.5,0.8s-0.9-0.3-0.9-1.2c0-1,0.3-1.4,2-1.4h0.4V135.7L37.1,135.7z"/>
		<path class="st4" d="M42.8,136.4L42.8,136.4c-0.4,0-0.6-0.1-0.6-0.5v-8.1c0-0.2-0.2-0.3-0.3-0.3h-0.5c-0.2,0-0.3,0.2-0.3,0.3v7.8
			c0,1.2,0.4,1.6,1.2,1.6c0.2,0,0.3,0,0.5-0.1c0.2,0,0.3-0.2,0.3-0.4l-0.1-0.4C42.9,136.4,42.8,136.4,42.8,136.4z"/>
		<path class="st4" d="M46.3,130.5h-1.4c-0.2,0-0.3,0.2-0.3,0.3l0,0c0,0.2,0.1,0.4,0.3,0.4l0.6,0.1v5.5c0,0.2,0.2,0.3,0.3,0.3h0.5
			c0.2,0,0.3-0.2,0.3-0.3v-6C46.7,130.7,46.5,130.5,46.3,130.5z"/>
		<path class="st4" d="M46.1,127.6c-0.5,0-0.8,0.4-0.8,0.8c0,0.5,0.3,0.8,0.8,0.8s0.8-0.4,0.8-0.8C46.9,128,46.5,127.6,46.1,127.6z"
			/>
		<path class="st4" d="M51.4,133.2c-0.9-0.3-1.2-0.4-1.2-1s0.3-0.8,1.1-0.8c0.4,0,0.7,0.1,1.1,0.2c0.2,0.1,0.4,0,0.5-0.2l0.1-0.3
			c0.1-0.2,0-0.4-0.2-0.5c-0.4-0.2-0.9-0.3-1.6-0.3c-1.5,0-2.1,0.9-2.1,1.8c0,1.3,0.8,1.8,1.7,2.1c1.1,0.3,1.4,0.4,1.4,1.2
			c0,0.6-0.3,1-1.2,1c-0.5,0-1-0.2-1.5-0.4c-0.2-0.1-0.4,0-0.5,0.1l-0.1,0.3c-0.1,0.2,0,0.4,0.1,0.5c0.5,0.3,1.2,0.5,1.9,0.5
			c1.6,0,2.4-0.6,2.4-2C53.4,133.9,52.5,133.5,51.4,133.2z"/>
		<path class="st4" d="M57.9,130.3c-1.6,0-2.6,1-2.6,3.5s1,3.5,2.7,3.5c0.8,0,1.4-0.2,2-0.6c0.2-0.1,0.2-0.3,0.1-0.5l-0.2-0.3
			c-0.1-0.1-0.3-0.2-0.5-0.1c-0.3,0.2-0.7,0.4-1.3,0.4c-1.1,0-1.5-0.4-1.5-2.3h3.7c0.1,0,0.2-0.1,0.2-0.2v-0.2
			C60.4,131.2,59.5,130.3,57.9,130.3z M56.5,133.2c0.1-1.6,0.6-2,1.4-2c1,0,1.3,0.5,1.3,2H56.5z"/>
		<path class="st4" d="M58.7,127.4l-2,1.4c-0.2,0.1-0.2,0.3-0.1,0.5l0.1,0.1c0.1,0.2,0.3,0.2,0.5,0.1l2.1-1c0.2-0.1,0.2-0.3,0.1-0.5
			l-0.3-0.5C59.1,127.3,58.9,127.3,58.7,127.4z"/>
		<path class="st4" d="M64.9,130.3c-1.6,0-2.6,1-2.6,3.5s1,3.5,2.7,3.5c0.8,0,1.4-0.2,2-0.6c0.2-0.1,0.2-0.3,0.1-0.5l-0.2-0.3
			c-0.1-0.1-0.3-0.2-0.5-0.1c-0.3,0.2-0.7,0.4-1.3,0.4c-1.1,0-1.5-0.4-1.5-2.3h3.7c0.1,0,0.2-0.1,0.2-0.2v-0.2
			C67.4,131.2,66.5,130.3,64.9,130.3z M63.6,133.2c0.1-1.6,0.6-2,1.4-2c1,0,1.3,0.5,1.3,2H63.6z"/>
		<path class="st4" d="M76.4,130.3c-0.7,0-1.3,0.4-1.8,0.9v-3.3c0-0.2-0.2-0.3-0.3-0.3h-0.5c-0.2,0-0.3,0.2-0.3,0.3v9
			c0,0.2,0.2,0.3,0.3,0.3H74c0.2,0,0.4-0.1,0.4-0.3l0.1-0.3c0.4,0.4,1.1,0.8,1.8,0.8c1.6,0,2.3-1.1,2.3-3.6
			C78.7,131,77.7,130.3,76.4,130.3z M76.1,136.4c-0.6,0-1.1-0.3-1.5-0.7v-3.6c0.5-0.5,0.9-0.8,1.6-0.8c0.9,0,1.3,0.4,1.3,2.6
			C77.5,136,77,136.4,76.1,136.4z"/>
		<path class="st4" d="M83.3,130.3c-1.6,0-2.6,1-2.6,3.5s1,3.5,2.7,3.5c0.8,0,1.4-0.2,2-0.6c0.2-0.1,0.2-0.3,0.1-0.5l-0.2-0.3
			c-0.1-0.1-0.3-0.2-0.5-0.1c-0.3,0.2-0.7,0.4-1.3,0.4c-1.1,0-1.5-0.4-1.5-2.3h3.7c0.1,0,0.2-0.1,0.2-0.2v-0.2
			C85.8,131.2,84.9,130.3,83.3,130.3z M81.9,133.2c0.1-1.6,0.6-2,1.4-2c1,0,1.3,0.5,1.3,2H81.9z"/>
		<path class="st4" d="M91.1,130.4c-0.8,0-1.4,0.5-1.9,1.1l-0.1-0.6c0-0.2-0.2-0.4-0.4-0.4h-0.2c-0.2,0-0.3,0.2-0.3,0.4v6
			c0,0.2,0.2,0.3,0.3,0.3H89c0.2,0,0.3-0.2,0.3-0.3v-4.6c0.5-0.5,0.9-0.7,1.5-0.7c0.1,0,0.1,0,0.2,0c0.1,0,0.2-0.1,0.2-0.2l0.1-0.9
			C91.3,130.4,91.3,130.4,91.1,130.4C91.2,130.4,91.2,130.4,91.1,130.4z"/>
		<path class="st4" d="M96.5,130.3c-0.8,0-1.5,0.4-2,1l-0.1-0.5c0-0.2-0.2-0.3-0.4-0.3h-0.3c-0.2,0-0.4,0.2-0.4,0.3v6
			c0,0.2,0.2,0.4,0.4,0.4h0.5c0.2,0,0.3-0.2,0.3-0.4v-4.7c0.5-0.4,1.1-0.8,1.6-0.8c0.6,0,0.8,0.2,0.8,1v4.5c0,0.2,0.2,0.4,0.3,0.4
			h0.5c0.2,0,0.4-0.2,0.4-0.4V132C98.1,130.8,97.5,130.3,96.5,130.3z"/>
		<path class="st4" d="M103.1,130.3c-1.6,0-2.7,1-2.7,3.5s1.1,3.5,2.7,3.5c1.6,0,2.7-1,2.7-3.5C105.9,131.3,104.7,130.3,103.1,130.3
			z M103.1,136.5c-1,0-1.5-0.6-1.5-2.6c0-2.1,0.5-2.6,1.5-2.6s1.5,0.6,1.5,2.6S104.2,136.5,103.1,136.5z"/>
		<path class="st4" d="M109.4,130.5H108c-0.2,0-0.3,0.2-0.3,0.3l0,0c0,0.2,0.1,0.4,0.3,0.4l0.6,0.1v5.5c0,0.2,0.2,0.3,0.4,0.3h0.5
			c0.2,0,0.3-0.2,0.3-0.3v-6C109.7,130.7,109.6,130.5,109.4,130.5z"/>
		<path class="st4" d="M109.2,127.6c-0.5,0-0.8,0.4-0.8,0.8c0,0.5,0.3,0.8,0.8,0.8s0.8-0.4,0.8-0.8C110,128,109.6,127.6,109.2,127.6
			z"/>
		<path class="st4" d="M114.5,133.2c-0.9-0.3-1.2-0.4-1.2-1s0.3-0.8,1.1-0.8c0.4,0,0.7,0.1,1.1,0.2c0.2,0.1,0.4,0,0.5-0.2l0.1-0.3
			c0.1-0.2,0-0.4-0.2-0.5c-0.4-0.2-0.9-0.3-1.6-0.3c-1.5,0-2.1,0.9-2.1,1.8c0,1.3,0.8,1.8,1.7,2.1c1.1,0.3,1.4,0.4,1.4,1.2
			c0,0.6-0.3,1-1.2,1c-0.5,0-1-0.2-1.5-0.4c-0.2-0.1-0.4,0-0.5,0.1l-0.1,0.3c-0.1,0.2,0,0.4,0.1,0.5c0.5,0.3,1.2,0.5,1.9,0.5
			c1.6,0,2.4-0.6,2.4-2C116.5,133.9,115.6,133.5,114.5,133.2z"/>
		<path class="st4" d="M121,130.3c-1.6,0-2.6,1-2.6,3.5s1,3.5,2.7,3.5c0.8,0,1.4-0.2,2-0.6c0.2-0.1,0.2-0.3,0.1-0.5l-0.2-0.3
			c-0.1-0.1-0.3-0.2-0.5-0.1c-0.3,0.2-0.7,0.4-1.3,0.4c-1.1,0-1.5-0.4-1.5-2.3h3.7c0.1,0,0.2-0.1,0.2-0.2v-0.2
			C123.5,131.2,122.6,130.3,121,130.3z M119.6,133.2c0.1-1.6,0.6-2,1.4-2c1,0,1.3,0.5,1.3,2H119.6z"/>
		<path class="st4" d="M63.3,73c0-10.7-5.7-19.9-14.7-23.4c0,0-0.3-0.1-0.3-0.4c0-0.2,0.1-0.3,0.2-0.4c7-4.4,11.3-12.4,11.3-21.7
			c0-13.8-11.2-25-25-25H5.2C3.3,2,1.7,3.6,1.7,5.5v89c0,1.9,1.6,3.5,3.5,3.5h33.1C52.1,98,63.3,86.8,63.3,73z M35.5,80.2
			c0,0.4-0.4,0.8-0.8,0.8h-1.3c-0.4,0-0.8-0.4-0.8-0.8v-8.6h-7.8v8.6c0,0.4-0.4,0.8-0.8,0.8h-1.3c-0.4,0-0.8-0.4-0.8-0.8V60.1
			c0-0.4,0.4-0.8,0.8-0.8H24c0.4,0,0.8,0.4,0.8,0.8V69h7.8v-8.9c0-0.4,0.4-0.8,0.8-0.8h1.3c0.4,0,0.8,0.4,0.8,0.8V80.2z M35.5,20.6
			c0,0.4-0.4,0.8-0.8,0.8h-10v7h8.5c0.4,0,0.8,0.4,0.8,0.8v0.9c0,0.4-0.4,0.8-0.8,0.8h-8.5v8.9c0,0.4-0.4,0.8-0.8,0.8h-1.3
			c-0.4,0-0.8-0.4-0.8-0.8V19.7c0-0.4,0.4-0.8,0.8-0.8h12.1c0.4,0,0.8,0.4,0.8,0.8V20.6L35.5,20.6z"/>
		<path class="st5" d="M34.7,59.3h-1.3c-0.4,0-0.8,0.4-0.8,0.8V69h-7.8v-8.9c0-0.4-0.4-0.8-0.8-0.8h-1.3c-0.4,0-0.8,0.4-0.8,0.8
			v20.1c0,0.4,0.4,0.8,0.8,0.8H24c0.4,0,0.8-0.4,0.8-0.8v-8.6h7.8v8.6c0,0.4,0.4,0.8,0.8,0.8h1.3c0.4,0,0.8-0.4,0.8-0.8V60.1
			C35.5,59.7,35.1,59.3,34.7,59.3z"/>
		<path class="st5" d="M34.7,18.9H22.6c-0.4,0-0.8,0.4-0.8,0.8v20.1c0,0.4,0.4,0.8,0.8,0.8h1.3c0.4,0,0.8-0.4,0.8-0.8v-8.9h8.5
			c0.4,0,0.8-0.4,0.8-0.8v-0.9c0-0.4-0.4-0.8-0.8-0.8h-8.5v-7h10c0.4,0,0.8-0.4,0.8-0.8v-0.9C35.5,19.3,35.1,18.9,34.7,18.9z"/>
	</g>
</g>
<g id="en" class="st1">
	<g class="st2">
		<path class="st3" d="M62.8,115.2c-0.8,0-1.3,0.4-1.4,2h2.7C64.2,115.7,63.8,115.2,62.8,115.2z"/>
		<path class="st3" d="M88.5,131.2c-0.8,0-1.3,0.4-1.4,2h2.7C89.8,131.7,89.5,131.2,88.5,131.2z"/>
		<path class="st3" d="M36.3,131.3c-0.7,0-1.1,0.3-1.6,0.8v3.6c0.4,0.4,0.9,0.7,1.5,0.7c1,0,1.4-0.3,1.4-2.5
			C37.6,131.7,37.2,131.3,36.3,131.3z"/>
		<path class="st3" d="M28.6,131.3c-0.7,0-1.1,0.3-1.6,0.8v3.6c0.4,0.4,0.9,0.7,1.5,0.7c0.9,0,1.4-0.3,1.4-2.5
			C29.9,131.7,29.5,131.3,28.6,131.3z"/>
		<path class="st3" d="M57.6,133.8c0,2.2,0.3,2.6,1.3,2.6c0.7,0,1.1-0.3,1.6-0.7V132c-0.4-0.4-0.9-0.7-1.5-0.7
			C58,131.3,57.6,131.7,57.6,133.8z"/>
		<path class="st3" d="M51.9,131.2c-0.8,0-1.3,0.4-1.4,2h2.7C53.2,131.7,52.8,131.2,51.9,131.2z"/>
		<path class="st3" d="M20.4,129.2L20.4,129.2c-0.2,0.7-0.3,1.3-0.7,2.7l-0.5,1.6h2.2l-0.4-1.6C20.7,130.5,20.6,129.9,20.4,129.2z"
			/>
		<path class="st3" d="M11.9,115.2c-0.8,0-1.3,0.4-1.4,2h2.7C13.2,115.7,12.8,115.2,11.9,115.2z"/>
		<path class="st3" d="M109.2,131.2c-0.8,0-1.3,0.4-1.4,2h2.7C110.5,131.7,110.2,131.2,109.2,131.2z"/>
		<path class="st3" d="M4.4,131.2c-1,0-1.5,0.5-1.5,2.6s0.5,2.6,1.5,2.6s1.5-0.5,1.5-2.6C5.9,131.8,5.4,131.2,4.4,131.2z"/>
		<path class="st3" d="M5.7,114.4c0-1-0.3-1.5-1.4-1.5H2.8v2.9h1.5C5.4,115.8,5.7,115.4,5.7,114.4z"/>
		<path class="st3" d="M4.4,116.9H2.8v3.2h1.5c1.3,0,1.7-0.5,1.7-1.6C6.1,117.4,5.7,116.9,4.4,116.9z"/>
		<path class="st4" d="M5.9,116.3c0.9-0.4,1.1-0.9,1.1-1.9c0-1.4-0.7-2.5-2.7-2.5H2c-0.2,0-0.3,0.2-0.3,0.4v8.5
			c0,0.2,0.2,0.4,0.3,0.4h2.5c1.7,0,2.9-0.8,2.9-2.6C7.5,117.2,6.8,116.5,5.9,116.3z M2.9,113h1.5c1.1,0,1.4,0.5,1.4,1.5
			s-0.2,1.4-1.3,1.4H2.9V113z M4.4,120.1H2.9v-3.2h1.6c1.3,0,1.7,0.5,1.7,1.6S5.7,120.1,4.4,120.1z"/>
		<path class="st4" d="M12,114.3c-1.6,0-2.6,1-2.6,3.5s1,3.5,2.7,3.5c0.8,0,1.4-0.2,2-0.6c0.2-0.1,0.2-0.3,0.1-0.5l-0.2-0.3
			c-0.1-0.1-0.3-0.2-0.5-0.1c-0.3,0.2-0.7,0.4-1.3,0.4c-1.1,0-1.5-0.5-1.5-2.3h3.7c0.1,0,0.2-0.1,0.2-0.2v-0.2
			C14.5,115.2,13.6,114.3,12,114.3z M10.6,117.2c0.1-1.6,0.6-2,1.4-2c1,0,1.3,0.5,1.3,2H10.6z"/>
		<path class="st4" d="M17.9,115.4l-0.1-0.6c0-0.2-0.2-0.4-0.4-0.4h-0.2c-0.2,0-0.3,0.2-0.3,0.4v6c0,0.2,0.2,0.3,0.3,0.3h0.5
			c0.2,0,0.3-0.2,0.3-0.3v-4.6c0.5-0.5,0.9-0.7,1.5-0.7c0.1,0,0.1,0,0.2,0s0.2-0.1,0.2-0.2l0.1-0.9c0-0.1,0-0.1-0.1-0.1h-0.1
			C19,114.3,18.4,114.8,17.9,115.4z"/>
		<path class="st4" d="M25.6,116.3v4.5c0,0.2,0.2,0.3,0.3,0.3h0.5c0.2,0,0.3-0.2,0.3-0.3v-4.9c0-1.1-0.7-1.6-1.6-1.6
			c-0.8,0-1.5,0.4-2,1l-0.1-0.5c0-0.2-0.2-0.3-0.4-0.3h-0.2c-0.2,0-0.3,0.2-0.3,0.3v6c0,0.2,0.2,0.4,0.3,0.4h0.5
			c0.2,0,0.3-0.2,0.3-0.4v-4.7c0.5-0.4,1.1-0.8,1.6-0.8C25.4,115.3,25.6,115.5,25.6,116.3z"/>
		<path class="st4" d="M38.9,111.9h-0.5c-0.2,0-0.3,0.2-0.3,0.3v7.1c-0.4,0.4-1.1,0.9-2,0.9c-1.2,0-1.4-0.6-1.4-2v-6
			c0-0.2-0.2-0.3-0.3-0.3h-0.5c-0.2,0-0.3,0.2-0.3,0.3v6.2c0,2.1,1.2,2.8,2.5,2.8c1,0,1.7-0.5,2.3-1l0.1,0.5c0,0.2,0.2,0.3,0.4,0.3
			h0.2c0.2,0,0.3-0.2,0.3-0.3v-8.5C39.2,112.1,39,111.9,38.9,111.9z"/>
		<path class="st4" d="M45.3,114.3c-0.8,0-1.5,0.4-2,1l-0.1-0.5c0-0.2-0.2-0.3-0.4-0.3h-0.2c-0.2,0-0.3,0.2-0.3,0.3v6
			c0,0.2,0.2,0.4,0.3,0.4h0.5c0.2,0,0.3-0.2,0.3-0.4v-4.7c0.5-0.4,1.1-0.8,1.6-0.8c0.6,0,0.8,0.2,0.8,1v4.5c0,0.2,0.2,0.4,0.3,0.4
			h0.5c0.2,0,0.3-0.2,0.3-0.4v-4.9C46.9,114.8,46.2,114.3,45.3,114.3z"/>
		<path class="st4" d="M50.6,111.6c-0.5,0-0.8,0.4-0.8,0.8c0,0.5,0.3,0.8,0.8,0.8s0.8-0.4,0.8-0.8C51.4,111.9,51,111.6,50.6,111.6z"
			/>
		<path class="st4" d="M50.3,121.2h0.5c0.2,0,0.3-0.2,0.3-0.3v-6c0-0.2-0.2-0.4-0.3-0.4h-1.4c-0.2,0-0.3,0.2-0.3,0.4l0,0
			c0,0.2,0.1,0.4,0.3,0.4l0.6,0.1v5.5C50,121,50.2,121.2,50.3,121.2z"/>
		<path class="st4" d="M56.6,120.8l2-6c0.1-0.2-0.1-0.3-0.2-0.3h-0.5c-0.2,0-0.4,0.1-0.4,0.3l-1,3.5c-0.2,0.5-0.3,1.4-0.4,1.8l0,0
			c-0.1-0.5-0.3-1.3-0.4-1.7l-1-3.5c-0.1-0.2-0.2-0.3-0.4-0.3h-0.6c-0.2,0-0.3,0.2-0.2,0.3l2,6c0.1,0.2,0.3,0.3,0.5,0.3h0.4
			C56.4,121.2,56.6,121,56.6,120.8z"/>
		<path class="st4" d="M63,114.3c-1.6,0-2.6,1-2.6,3.5s1,3.5,2.7,3.5c0.8,0,1.4-0.2,2-0.6c0.2-0.1,0.2-0.3,0.1-0.5l-0.2-0.3
			c-0.1-0.1-0.3-0.2-0.5-0.1c-0.3,0.2-0.7,0.4-1.3,0.4c-1.1,0-1.5-0.5-1.5-2.3h3.7c0.1,0,0.2-0.1,0.2-0.2v-0.2
			C65.5,115.2,64.6,114.3,63,114.3z M61.6,117.2c0.1-1.6,0.6-2,1.4-2c1,0,1.3,0.5,1.3,2H61.6z"/>
		<path class="st4" d="M68.2,121.2h0.5c0.2,0,0.3-0.2,0.3-0.3v-4.6c0.5-0.5,0.9-0.7,1.5-0.7c0.1,0,0.1,0,0.2,0
			c0.1,0,0.2-0.1,0.2-0.2l0.1-0.9c0-0.1,0-0.1-0.1-0.1h-0.1c-0.8,0-1.4,0.5-1.9,1.1l-0.1-0.6c0-0.2-0.2-0.3-0.4-0.3h-0.2
			c-0.2,0-0.3,0.2-0.3,0.3v6C67.8,121,68,121.2,68.2,121.2z"/>
		<path class="st4" d="M76.9,119.3c0-1.5-0.9-1.9-2-2.2c-0.9-0.3-1.2-0.4-1.2-1s0.3-0.8,1.1-0.8c0.4,0,0.7,0.1,1.1,0.2
			c0.2,0.1,0.4,0,0.5-0.2l0.1-0.3c0.1-0.2,0-0.4-0.2-0.5c-0.4-0.2-0.9-0.3-1.6-0.3c-1.5,0-2.1,0.9-2.1,1.8c0,1.3,0.8,1.8,1.7,2.1
			c1.1,0.3,1.4,0.4,1.4,1.2c0,0.6-0.3,1-1.2,1c-0.5,0-1-0.2-1.5-0.4c-0.2-0.1-0.4,0-0.5,0.1l-0.1,0.3c-0.1,0.2,0,0.4,0.1,0.5
			c0.5,0.3,1.2,0.5,1.9,0.5C76.2,121.3,76.9,120.7,76.9,119.3z"/>
		<path class="st4" d="M80.5,114.5h-1.4c-0.2,0-0.3,0.2-0.3,0.3l0,0c0,0.2,0.1,0.4,0.3,0.4l0.6,0.1v5.5c0,0.2,0.2,0.3,0.4,0.3h0.5
			c0.2,0,0.3-0.2,0.3-0.3v-6C80.8,114.6,80.7,114.5,80.5,114.5z"/>
		<path class="st4" d="M80.2,113.2c0.5,0,0.8-0.4,0.8-0.8c0-0.5-0.3-0.8-0.8-0.8s-0.8,0.4-0.8,0.8C79.4,112.9,79.8,113.2,80.2,113.2
			z"/>
		<path class="st4" d="M86.3,120.8l-0.1-0.2c-0.1-0.2-0.2-0.3-0.4-0.2c-0.1,0-0.3,0.1-0.4,0.1c-0.4,0-0.6-0.2-0.6-0.6v-4.4h1
			c0.2,0,0.3-0.2,0.3-0.4v-0.2c0-0.2-0.2-0.4-0.3-0.4h-1v-1.6c0-0.2-0.2-0.3-0.3-0.3l-0.5,0.1c-0.2,0.1-0.3,0.2-0.3,0.4v1.4h-0.4
			c-0.2,0-0.3,0.2-0.3,0.3v0.2c0,0.2,0.2,0.4,0.3,0.4h0.4v4.5c0,1.1,0.7,1.4,1.6,1.4c0.3,0,0.5-0.1,0.7-0.1
			C86.3,121.1,86.4,121,86.3,120.8z"/>
		<path class="st4" d="M93,114.5h-0.5c-0.2,0-0.4,0.1-0.5,0.3l-1.1,3.6c-0.2,0.7-0.3,1.4-0.4,1.8l0,0c-0.1-0.5-0.3-1.3-0.4-1.8
			l-1-3.6c-0.1-0.2-0.2-0.3-0.4-0.3h-0.6c-0.2,0-0.3,0.2-0.2,0.3l1.9,6.1c0.1,0.1,0.2,0.3,0.3,0.3l0,0c-0.3,1.1-0.7,1.5-1.5,1.7
			c-0.2,0.1-0.3,0.3-0.2,0.4l0.1,0.3c0.1,0.2,0.2,0.3,0.4,0.3c1.1-0.3,1.7-0.7,2.3-2.5l2.1-6.6C93.3,114.6,93.2,114.5,93,114.5z"/>
		<path class="st4" d="M4.4,130.3c-1.6,0-2.7,1-2.7,3.5s1.1,3.5,2.7,3.5s2.7-1,2.7-3.5C7.2,131.3,6,130.3,4.4,130.3z M4.4,136.5
			c-1,0-1.5-0.6-1.5-2.6c0-2.1,0.5-2.6,1.5-2.6s1.5,0.6,1.5,2.6S5.5,136.5,4.4,136.5z"/>
		<path class="st4" d="M11.3,127.4c-1,0-1.8,0.5-1.8,2v1.1H9.2c-0.2,0-0.3,0.2-0.3,0.3v0.2c0,0.2,0.2,0.3,0.3,0.3h0.4v5.4
			c0,0.2,0.2,0.4,0.3,0.4h0.5c0.2,0,0.3-0.2,0.3-0.4v-5.4h0.9c0.2,0,0.3-0.2,0.3-0.3v-0.2c0-0.2-0.2-0.3-0.3-0.3h-0.9v-1.1
			c0-0.7,0.2-1,0.8-1c0.2,0,0.3,0,0.5,0.1c0.2,0.1,0.4,0,0.5-0.2l0.1-0.2c0.1-0.2,0-0.4-0.2-0.5C12.1,127.5,11.7,127.4,11.3,127.4z"
			/>
		<path class="st4" d="M20.8,128h-0.7c-0.2,0-0.4,0.1-0.5,0.3l-2.6,8.6c-0.1,0.2,0.1,0.3,0.2,0.3h0.6c0.2,0,0.4-0.1,0.4-0.3l0.7-2.3
			h2.9l0.7,2.3c0.1,0.2,0.2,0.3,0.4,0.3h0.7c0.2,0,0.3-0.2,0.3-0.3l-2.6-8.6C21.2,128.1,21,128,20.8,128z M19.3,133.5l0.5-1.6
			c0.4-1.4,0.5-1.9,0.7-2.7l0,0c0.1,0.7,0.2,1.2,0.6,2.7l0.4,1.6H19.3z"/>
		<path class="st4" d="M28.8,130.3c-0.7,0-1.4,0.4-1.9,0.9l-0.1-0.4c0-0.2-0.2-0.3-0.4-0.3h-0.2c-0.2,0-0.3,0.2-0.3,0.3v8.7
			c0,0.2,0.2,0.3,0.3,0.3h0.5c0.2,0,0.3-0.2,0.3-0.3v-2.9c0.4,0.4,1,0.8,1.8,0.8c1.6,0,2.3-1.1,2.3-3.6
			C31.1,131,30.1,130.3,28.8,130.3z M28.5,136.4c-0.6,0-1.1-0.3-1.5-0.7v-3.6c0.5-0.5,0.9-0.8,1.6-0.8c0.9,0,1.3,0.4,1.3,2.6
			C29.9,136,29.5,136.4,28.5,136.4z"/>
		<path class="st4" d="M36.5,130.3c-0.7,0-1.4,0.4-1.9,0.9l-0.1-0.4c0-0.2-0.2-0.3-0.4-0.3h-0.2c-0.2,0-0.3,0.2-0.3,0.3v8.7
			c0,0.2,0.2,0.3,0.3,0.3h0.5c0.2,0,0.3-0.2,0.3-0.3v-2.9c0.4,0.4,1,0.8,1.8,0.8c1.6,0,2.3-1.1,2.3-3.6
			C38.8,131,37.8,130.3,36.5,130.3z M36.2,136.4c-0.6,0-1.1-0.3-1.5-0.7v-3.6c0.5-0.5,0.9-0.8,1.6-0.8c0.9,0,1.3,0.4,1.3,2.6
			C37.6,136,37.1,136.4,36.2,136.4z"/>
		<path class="st4" d="M43,136.4L43,136.4c-0.4,0-0.6-0.1-0.6-0.5v-8.1c0-0.2-0.2-0.3-0.3-0.3h-0.5c-0.2,0-0.3,0.2-0.3,0.3v7.8
			c0,1.2,0.4,1.6,1.2,1.6c0.2,0,0.3,0,0.5-0.1c0.2,0,0.3-0.2,0.3-0.4l-0.1-0.4C43.1,136.4,43.1,136.4,43,136.4z"/>
		<path class="st4" d="M46.3,127.6c-0.5,0-0.8,0.4-0.8,0.8c0,0.5,0.3,0.8,0.8,0.8s0.8-0.4,0.8-0.8C47.1,128,46.8,127.6,46.3,127.6z"
			/>
		<path class="st4" d="M46.5,130.5h-1.4c-0.2,0-0.3,0.2-0.3,0.3l0,0c0,0.2,0.1,0.4,0.3,0.4l0.6,0.1v5.5c0,0.2,0.2,0.3,0.3,0.3h0.5
			c0.2,0,0.3-0.2,0.3-0.3v-6C46.9,130.7,46.7,130.5,46.5,130.5z"/>
		<path class="st4" d="M51.9,130.3c-1.6,0-2.6,1-2.6,3.5s1,3.5,2.7,3.5c0.8,0,1.4-0.2,2-0.6c0.2-0.1,0.2-0.3,0.1-0.5l-0.2-0.3
			c-0.1-0.1-0.3-0.2-0.5-0.1c-0.3,0.2-0.7,0.4-1.3,0.4c-1.1,0-1.5-0.4-1.5-2.3h3.7c0.1,0,0.2-0.1,0.2-0.2v-0.2
			C54.4,131.2,53.5,130.3,51.9,130.3z M50.5,133.2c0.1-1.6,0.6-2,1.4-2c1,0,1.3,0.5,1.3,2H50.5z"/>
		<path class="st4" d="M61.3,127.5h-0.5c-0.2,0-0.3,0.2-0.3,0.4v3.3c-0.4-0.4-1-0.8-1.8-0.8c-1.6,0-2.3,1.1-2.3,3.6
			c0,2.8,1,3.5,2.3,3.5c0.7,0,1.4-0.3,1.9-0.9l0.1,0.4c0.1,0.2,0.2,0.3,0.4,0.3h0.2c0.2,0,0.3-0.2,0.3-0.3v-9
			C61.6,127.7,61.5,127.5,61.3,127.5z M60.5,135.7c-0.5,0.5-0.9,0.7-1.6,0.7c-0.9,0-1.3-0.4-1.3-2.6c0-2.1,0.4-2.5,1.4-2.5
			c0.6,0,1.1,0.4,1.5,0.7L60.5,135.7L60.5,135.7L60.5,135.7z"/>
		<path class="st4" d="M70.6,131.8c-1.1-0.4-1.5-0.7-1.5-1.6c0-0.9,0.6-1.3,1.4-1.3c0.5,0,0.9,0.1,1.4,0.4c0.2,0.1,0.4,0,0.5-0.1
			l0.2-0.3c0.1-0.2,0-0.4-0.1-0.5c-0.5-0.3-1.1-0.5-1.9-0.5c-1.6,0-2.6,0.8-2.6,2.4c0,1.5,0.7,2.2,2.2,2.7c1.1,0.4,1.8,0.8,1.8,1.9
			c0,0.9-0.5,1.5-1.7,1.5c-0.8,0-1.3-0.2-1.9-0.6c-0.1-0.1-0.4-0.1-0.5,0.1l-0.2,0.3c-0.1,0.2-0.1,0.4,0.1,0.5
			c0.6,0.4,1.5,0.7,2.5,0.7c2.2,0,2.9-1.3,2.9-2.6C73.2,132.9,72,132.3,70.6,131.8z"/>
		<path class="st4" d="M79.4,136.1c-0.1-0.1-0.3-0.2-0.5,0c-0.3,0.2-0.6,0.4-1,0.4c-1.1,0-1.5-0.5-1.5-2.6s0.4-2.5,1.4-2.5
			c0.4,0,0.7,0.1,1,0.3c0.1,0.1,0.4,0.1,0.5,0l0.2-0.3c0.1-0.1,0.1-0.4-0.1-0.5c-0.5-0.4-1-0.5-1.6-0.5c-1.7,0-2.7,1-2.7,3.5
			c0,2.4,1,3.5,2.7,3.5c0.8,0,1.3-0.2,1.8-0.6c0.1-0.1,0.2-0.4,0-0.5L79.4,136.1z"/>
		<path class="st4" d="M82.9,127.6c-0.5,0-0.8,0.4-0.8,0.8c0,0.5,0.3,0.8,0.8,0.8s0.8-0.4,0.8-0.8C83.7,128,83.4,127.6,82.9,127.6z"
			/>
		<path class="st4" d="M83.2,130.5h-1.5c-0.2,0-0.3,0.2-0.3,0.3l0,0c0,0.2,0.1,0.4,0.3,0.4l0.6,0.1v5.5c0,0.2,0.2,0.3,0.3,0.3h0.5
			c0.2,0,0.4-0.2,0.4-0.3v-6C83.5,130.7,83.4,130.5,83.2,130.5z"/>
		<path class="st4" d="M88.5,130.3c-1.6,0-2.6,1-2.6,3.5s1,3.5,2.7,3.5c0.8,0,1.4-0.2,2-0.6c0.2-0.1,0.2-0.3,0.1-0.5l-0.2-0.3
			c-0.1-0.1-0.3-0.2-0.5-0.1c-0.4,0.2-0.7,0.4-1.3,0.4c-1.1,0-1.5-0.4-1.5-2.3h3.7c0.1,0,0.2-0.1,0.2-0.2v-0.2
			C91,131.2,90.1,130.3,88.5,130.3z M87.1,133.2c0.1-1.6,0.6-2,1.4-2c1,0,1.3,0.5,1.3,2H87.1z"/>
		<path class="st4" d="M96.5,130.3c-0.8,0-1.5,0.4-2,1l-0.1-0.5c0-0.2-0.2-0.3-0.4-0.3h-0.3c-0.2,0-0.3,0.2-0.3,0.3v6
			c0,0.2,0.2,0.4,0.3,0.4h0.5c0.2,0,0.4-0.2,0.4-0.4v-4.7c0.5-0.4,1.1-0.8,1.6-0.8c0.6,0,0.8,0.2,0.8,1v4.5c0,0.2,0.2,0.4,0.3,0.4
			h0.5c0.2,0,0.4-0.2,0.4-0.4V132C98.1,130.8,97.5,130.3,96.5,130.3z"/>
		<path class="st4" d="M104.6,136.1c-0.1-0.1-0.3-0.2-0.5,0c-0.3,0.2-0.6,0.4-1,0.4c-1.1,0-1.5-0.5-1.5-2.6s0.4-2.5,1.4-2.5
			c0.4,0,0.7,0.1,1,0.3c0.1,0.1,0.4,0.1,0.5,0l0.2-0.3c0.1-0.1,0.1-0.4-0.1-0.5c-0.5-0.4-1-0.5-1.6-0.5c-1.7,0-2.7,1-2.7,3.5
			c0,2.4,0.9,3.5,2.7,3.5c0.8,0,1.3-0.2,1.8-0.6c0.1-0.1,0.2-0.4,0-0.5L104.6,136.1z"/>
		<path class="st4" d="M109.2,130.3c-1.6,0-2.6,1-2.6,3.5s1,3.5,2.7,3.5c0.8,0,1.4-0.2,2-0.6c0.2-0.1,0.2-0.3,0.1-0.5l-0.2-0.3
			c-0.1-0.1-0.3-0.2-0.5-0.1c-0.3,0.2-0.7,0.4-1.3,0.4c-1.1,0-1.5-0.4-1.5-2.3h3.7c0.1,0,0.2-0.1,0.2-0.2v-0.2
			C111.7,131.2,110.8,130.3,109.2,130.3z M107.9,133.2c0.1-1.6,0.6-2,1.4-2c1,0,1.3,0.5,1.3,2H107.9z"/>
		<path class="st4" d="M116,133.2c-0.9-0.3-1.2-0.4-1.2-1s0.3-0.8,1.1-0.8c0.4,0,0.7,0.1,1.1,0.2c0.2,0.1,0.4,0,0.5-0.2l0.1-0.3
			c0.1-0.2,0-0.4-0.2-0.5c-0.4-0.2-0.9-0.3-1.6-0.3c-1.5,0-2.1,0.9-2.1,1.8c0,1.3,0.8,1.8,1.7,2.1c1.1,0.3,1.4,0.4,1.4,1.2
			c0,0.6-0.3,1-1.2,1c-0.6,0-1-0.2-1.5-0.4c-0.2-0.1-0.4,0-0.5,0.1l-0.1,0.3c-0.1,0.2,0,0.4,0.1,0.5c0.5,0.3,1.2,0.5,1.9,0.5
			c1.6,0,2.4-0.6,2.4-2C118,133.9,117.1,133.5,116,133.2z"/>
		<path class="st4" d="M5.2,98h33.1c13.8,0,25-11.2,25-25c0-10.7-5.7-19.9-14.7-23.4c0,0-0.3-0.1-0.3-0.4c0-0.2,0.1-0.3,0.2-0.4
			c7-4.4,11.3-12.4,11.3-21.7c0-13.8-11.2-25-25-25H5.2C3.3,2,1.7,3.6,1.7,5.5v89C1.7,96.4,3.3,98,5.2,98z M35.5,80.2
			c0,0.4-0.4,0.8-0.8,0.8h-1.3c-0.4,0-0.8-0.4-0.8-0.8v-8.6h-7.8v8.6c0,0.4-0.4,0.8-0.8,0.8h-1.3c-0.4,0-0.8-0.4-0.8-0.8V60.1
			c0-0.4,0.4-0.8,0.8-0.8H24c0.4,0,0.8,0.4,0.8,0.8V69h7.8v-8.9c0-0.4,0.4-0.8,0.8-0.8h1.3c0.4,0,0.8,0.4,0.8,0.8V80.2z M21.8,19.7
			c0-0.4,0.4-0.8,0.8-0.8h12.1c0.4,0,0.8,0.4,0.8,0.8v0.9c0,0.4-0.4,0.8-0.8,0.8h-10v7h8.5c0.4,0,0.8,0.4,0.8,0.8v0.9
			c0,0.4-0.4,0.8-0.8,0.8h-8.5v8.9c0,0.4-0.4,0.8-0.8,0.8h-1.3c-0.4,0-0.8-0.4-0.8-0.8C21.8,39.8,21.8,19.7,21.8,19.7z"/>
		<path class="st5" d="M34.7,59.3h-1.3c-0.4,0-0.8,0.4-0.8,0.8V69h-7.8v-8.9c0-0.4-0.4-0.8-0.8-0.8h-1.3c-0.4,0-0.8,0.4-0.8,0.8
			v20.1c0,0.4,0.4,0.8,0.8,0.8H24c0.4,0,0.8-0.4,0.8-0.8v-8.6h7.8v8.6c0,0.4,0.4,0.8,0.8,0.8h1.3c0.4,0,0.8-0.4,0.8-0.8V60.1
			C35.5,59.7,35.1,59.3,34.7,59.3z"/>
		<path class="st5" d="M22.6,40.6h1.3c0.4,0,0.8-0.4,0.8-0.8v-8.9h8.5c0.4,0,0.8-0.4,0.8-0.8v-0.9c0-0.4-0.4-0.8-0.8-0.8h-8.5v-7h10
			c0.4,0,0.8-0.4,0.8-0.8v-0.9c0-0.4-0.4-0.8-0.8-0.8H22.6c-0.4,0-0.8,0.4-0.8,0.8v20.1C21.8,40.3,22.2,40.6,22.6,40.6z"/>
	</g>
</g>
<g id="Layer_4" class="st1">
	<rect x="1.7" y="2" class="st6" width="123" height="139"/>
</g>
</svg>
